<?xml version="1.0" encoding="utf-8"?>
<!-- Generator: Adobe Illustrator 23.0.0, SVG Export Plug-In . SVG Version: 6.00 Build 0)  -->
<svg version="1.1" xmlns="http://www.w3.org/2000/svg" xmlns:xlink="http://www.w3.org/1999/xlink" x="0px" y="0px"
	 viewBox="0 0 192 192" style="enable-background:new 0 0 192 192;" xml:space="preserve">
<style type="text/css">
	.st0{fill:#F6F6F6;}
	.st1{fill:#612960;}
	.st2{fill:#E97F24;}
	.st3{fill:none;stroke:#E87F24;stroke-width:4;stroke-linecap:round;stroke-linejoin:round;stroke-miterlimit:10;}
	.st4{fill:#612860;stroke:#E87F24;stroke-width:4;stroke-miterlimit:10;}
	.st5{fill:#F48320;}
	.st6{clip-path:url(#SVGID_6_);fill:#612960;}
	.st7{fill:none;stroke:#000000;stroke-width:2;stroke-miterlimit:10;}
	.st8{display:none;fill:#612960;}
	.st9{fill:#FFFFFF;}
	.st10{fill:#F58520;}
	.st11{clip-path:url(#SVGID_16_);fill:#612960;}
	.st12{clip-path:url(#SVGID_34_);fill:#612960;}
	.st13{fill:none;stroke:#E87F24;stroke-width:4;stroke-linecap:round;stroke-linejoin:round;}
	.st14{fill:none;stroke:#E87F24;stroke-width:2.7;stroke-linecap:round;stroke-linejoin:round;}
	.st15{fill:none;stroke:#E87F24;stroke-width:2;stroke-linecap:round;stroke-linejoin:round;stroke-miterlimit:10;}
	.st16{fill:#612860;stroke:#E87F24;stroke-width:2;stroke-miterlimit:10;}
	.st17{fill:none;stroke:#E87F26;stroke-width:4;stroke-linecap:round;stroke-miterlimit:10;}
	.st18{fill:#E87F26;}
	.st19{fill:#E97F24;stroke:#E87F26;stroke-width:0.5;stroke-miterlimit:10;}
	.st20{fill:#E97F24;stroke:#E97F24;stroke-width:0.75;stroke-miterlimit:10;}
	.st21{fill:none;stroke:#E97F24;stroke-width:3.5;stroke-miterlimit:10;}
	.st22{fill:#424143;}
	.st23{display:none;}
	.st24{display:inline;}
</style>
<g id="Layer_1">
	<rect x="-645.6" y="-10.1" class="st8" width="1273" height="216"/>
</g>
<g id="Menu">
</g>
<g id="Layer_3">
</g>
<g id="Layer_4">
</g>
<g id="Layer_5">
</g>
<g id="Layer_7">
</g>
<g id="Divisores">
</g>
<g id="Menu_1_">
</g>
<g id="Layer_9">
</g>
<g id="Layer_10">
</g>
<g id="Layer_11">
</g>
<g id="Iconos_de_servicios">
	<g>
		<g>
			<circle class="st0" cx="96" cy="96" r="94.1"/>
		</g>
	</g>
	<g>
		<path class="st2" d="M67.8,103.7h-0.5c-2.5,0-7.2-1-10.6-7.5c-1.6-3-2.4-6.6-2.4-10.2v-0.3c0-3.5,1.9-6.8,5-8.5
			c1.8-1,4.8-2.2,8.3-2.2c3.7,0,7,1.6,9,2.9c2.8,1.8,4.4,4.8,4.4,8.2c0,3.7-0.9,7.3-2.5,10.3C75.3,102.4,70.9,103.7,67.8,103.7z
			 M67.6,78.9c-2.7,0-5,0.9-6.4,1.7c-1.8,1-3,2.9-3,5.1V86c0,3.1,0.7,6,2,8.4c2.3,4.4,5.2,5.4,7.1,5.4h0.5c2.9,0,5.3-1.8,7.2-5.3
			c1.3-2.5,2-5.4,2-8.5c0-2-1-3.8-2.6-4.8C72.8,80.1,70.3,78.9,67.6,78.9z"/>
		<path class="st2" d="M80.9,107.2h-2.2l-2.3,4h4.5c6.5,0,11.7,4.7,11.7,10.6v19.2c0,0.1-0.1,0.2-0.2,0.3
			c-7.3,4.8-15.9,7.3-24.9,7.3c-9,0-17.6-2.5-24.9-7.3c-0.1-0.1-0.2-0.2-0.2-0.3v-19.2c0-5.8,5.3-10.6,11.8-10.6h4.3l-2.3-4h-2
			c-8.7,0-15.7,6.5-15.7,14.5v19.2c0,1.4,0.7,2.8,2,3.6c8,5.2,17.3,7.9,27.1,7.9c9.7,0,19.1-2.7,27.1-7.9c1.2-0.8,2-2.1,2-3.6v-19.2
			C96.6,113.7,89.5,107.2,80.9,107.2z"/>
	</g>
	<g>
		<path class="st17" d="M160,87.4c0,1.6-1.3,3-3,3H95c-1.6,0-3-1.3-3-3V49c0-1.6,1.3-3,3-3h62c1.6,0,3,1.3,3,3V87.4z"/>
		<line class="st17" x1="124.5" y1="90.3" x2="124.5" y2="100.4"/>
		<path class="st17" d="M109.8,114l12.7-12.7c1.1-1.1,3-1.1,4.2,0l12.7,12.7"/>
		<path class="st18" d="M121.8,85c-0.1,0-0.1,0-0.2,0c-1.2-0.1-2.2-0.8-2.6-1.9l-4.9-12.8l-2.6,6.1c-0.5,1.1-1.5,1.8-2.7,1.8H92
			c-0.8,0-1.5-0.7-1.5-1.5s0.7-1.5,1.5-1.5h16.7l2.6-6.1c0.5-1.1,1.6-1.9,2.8-1.8c1.2,0,2.3,0.8,2.7,1.9l4.9,12.8l6.1-11.2
			c0.5-0.9,1.5-1.5,2.5-1.6c1,0,2.1,0.5,2.6,1.4l4.6,7.3l6.2-13.7c0.3-0.8,1.2-1.1,2-0.7c0.8,0.3,1.1,1.2,0.7,2l-6.2,13.7
			c-0.5,1-1.4,1.7-2.5,1.7c-1.1,0.1-2.1-0.5-2.7-1.4l-4.6-7.3l-6.1,11.2C123.9,84.4,122.9,85,121.8,85z"/>
	</g>
	<path class="st2" d="M77.8,109.4c1.2,0.7,2.4,1,3.6,1.1l-12.2,21.1c-0.6,1-1.8,1.3-2.8,0.7c-1-0.6-1.3-1.8-0.7-2.8l11.8-20.4
		C77.6,109.2,77.7,109.3,77.8,109.4z"/>
	<path class="st2" d="M57,109.4c-1.2,0.7-2.4,1-3.6,1.1l12.2,21.1c0.6,1,1.8,1.3,2.8,0.7c1-0.6,1.3-1.8,0.7-2.8l-11.8-20.4
		C57.3,109.2,57.2,109.3,57,109.4z"/>
	<g>
		<path class="st19" d="M67.5,108.1c-1,0-1.7,0.8-1.7,1.7v20.7c1.2,0,2.3,0,3.4,0.1v-20.8C69.2,108.9,68.5,108.1,67.5,108.1z"/>
	</g>
	<g>
		<path class="st2" d="M67.3,112.8L67.3,112.8l6.2-4.8c0.3-0.3,0.1-0.8-0.3-0.8h-3.8c0,0,0,0,0,0l0,0h-4.1l0,0c0,0,0,0,0,0h-3.7
			c-0.4,0-0.6,0.5-0.3,0.8L67.3,112.8z"/>
	</g>
	<g>
		<path class="st2" d="M104,57.5c0.4-0.1,0.7-0.1,1.1-0.1c0.4,0,0.7,0,1.1,0.1v5.3c-0.5,0.2-1.1,0.3-1.6,0.4
			c-0.6,0.1-1.1,0.1-1.5,0.1c-0.9,0-1.7-0.1-2.3-0.4c-0.7-0.3-1.2-0.7-1.7-1.2c-0.4-0.5-0.8-1.1-1-1.8s-0.3-1.4-0.3-2.2
			c0-0.8,0.1-1.5,0.3-2.2c0.2-0.7,0.6-1.3,1-1.8c0.4-0.5,1-0.9,1.6-1.2c0.6-0.3,1.4-0.4,2.2-0.4c0.5,0,0.9,0,1.3,0.1
			s0.8,0.2,1.3,0.4c0,0.3-0.1,0.6-0.2,0.9s-0.2,0.6-0.3,0.9c-0.3-0.1-0.7-0.2-0.9-0.3c-0.3,0-0.6-0.1-1-0.1c-1,0-1.7,0.3-2.2,0.9
			c-0.5,0.6-0.8,1.6-0.8,2.8s0.3,2.1,0.8,2.8c0.5,0.6,1.3,0.9,2.3,0.9c0.2,0,0.3,0,0.5,0c0.1,0,0.3,0,0.4-0.1V57.5z"/>
		<path class="st2" d="M111.3,63.3c-0.6,0-1.2-0.1-1.6-0.3c-0.5-0.2-0.8-0.5-1.2-0.9c-0.3-0.4-0.5-0.8-0.7-1.3
			c-0.2-0.5-0.2-1-0.2-1.6s0.1-1.1,0.2-1.6c0.2-0.5,0.4-0.9,0.7-1.3c0.3-0.4,0.7-0.7,1.2-0.9s1-0.3,1.6-0.3s1.2,0.1,1.7,0.3
			c0.5,0.2,0.9,0.5,1.2,0.9c0.3,0.4,0.5,0.8,0.7,1.3c0.2,0.5,0.2,1,0.2,1.6s-0.1,1.1-0.2,1.6c-0.1,0.5-0.4,0.9-0.7,1.3
			c-0.3,0.4-0.7,0.6-1.2,0.9C112.5,63.2,112,63.3,111.3,63.3z M111.3,61.7c0.6,0,1-0.2,1.2-0.6c0.2-0.4,0.4-1,0.4-1.8
			s-0.1-1.4-0.4-1.8c-0.2-0.4-0.6-0.6-1.2-0.6c-0.5,0-0.9,0.2-1.2,0.6s-0.4,1-0.4,1.8s0.1,1.4,0.4,1.8S110.8,61.7,111.3,61.7z"/>
		<path class="st2" d="M120.6,58c0-0.2,0-0.4-0.1-0.6s-0.2-0.3-0.3-0.4c-0.1-0.1-0.3-0.1-0.5-0.2c-0.2,0-0.4,0-0.7,0
			c-0.5,0-1.1,0.1-1.7,0.3c-0.1-0.3-0.2-0.5-0.3-0.7c-0.1-0.2-0.1-0.5-0.1-0.8c0.4-0.1,0.9-0.3,1.3-0.3c0.4-0.1,0.8-0.1,1.2-0.1
			c1,0,1.9,0.3,2.4,0.8s0.9,1.3,0.9,2.4v4.5c-0.4,0.1-0.8,0.2-1.3,0.3c-0.5,0.1-1.1,0.2-1.7,0.2c-0.5,0-1,0-1.4-0.1
			s-0.8-0.2-1.1-0.4c-0.3-0.2-0.5-0.5-0.7-0.8s-0.2-0.7-0.2-1.2s0.1-0.9,0.3-1.2c0.2-0.3,0.5-0.6,0.8-0.8c0.3-0.2,0.7-0.3,1.1-0.4
			c0.4-0.1,0.8-0.1,1.2-0.1c0.3,0,0.6,0,1,0V58z M120.6,59.6c-0.1,0-0.3,0-0.4-0.1c-0.1,0-0.3,0-0.4,0c-0.5,0-0.9,0.1-1.2,0.3
			c-0.3,0.2-0.4,0.5-0.4,0.8c0,0.3,0.1,0.5,0.2,0.6c0.1,0.1,0.2,0.2,0.4,0.3c0.2,0.1,0.3,0.1,0.5,0.1c0.2,0,0.3,0,0.5,0
			c0.2,0,0.3,0,0.5,0c0.1,0,0.3,0,0.4-0.1V59.6z"/>
		<path class="st2" d="M124.5,52.2c0.4-0.1,0.7-0.1,1.1-0.1c0.3,0,0.7,0,1.1,0.1V60c0,0.3,0,0.6,0.1,0.8s0.1,0.3,0.2,0.4
			s0.2,0.2,0.3,0.2c0.1,0,0.3,0.1,0.5,0.1c0.1,0,0.2,0,0.3,0c0.1,0,0.2,0,0.3,0c0.1,0.4,0.2,0.8,0.2,1.2c0,0.1,0,0.2,0,0.2
			c0,0.1,0,0.1,0,0.2c-0.2,0-0.4,0.1-0.6,0.1c-0.2,0-0.4,0-0.6,0c-0.8,0-1.4-0.2-1.9-0.6c-0.5-0.4-0.7-1.1-0.7-2.1V52.2z"/>
		<path class="st2" d="M130.9,59.8c-0.6-0.2-1-0.4-1.3-0.7c-0.3-0.3-0.5-0.8-0.5-1.4c0-0.8,0.3-1.4,0.8-1.8c0.5-0.4,1.3-0.6,2.2-0.6
			c0.4,0,0.8,0,1.2,0.1c0.4,0.1,0.8,0.2,1.2,0.3c0,0.3-0.1,0.5-0.2,0.8c-0.1,0.3-0.2,0.5-0.3,0.7c-0.2-0.1-0.5-0.2-0.8-0.3
			c-0.3-0.1-0.6-0.1-0.9-0.1c-0.3,0-0.6,0.1-0.8,0.2c-0.2,0.1-0.3,0.3-0.3,0.5c0,0.2,0.1,0.4,0.2,0.5c0.1,0.1,0.3,0.2,0.6,0.3
			l0.9,0.3c0.3,0.1,0.5,0.2,0.8,0.3c0.2,0.1,0.4,0.3,0.6,0.4c0.2,0.2,0.3,0.4,0.4,0.6s0.1,0.6,0.1,0.9c0,0.4-0.1,0.7-0.2,1
			c-0.2,0.3-0.4,0.6-0.7,0.8c-0.3,0.2-0.7,0.4-1.1,0.6c-0.4,0.1-0.9,0.2-1.4,0.2c-0.2,0-0.5,0-0.7,0c-0.2,0-0.4,0-0.6-0.1
			c-0.2,0-0.4-0.1-0.5-0.1c-0.2,0-0.4-0.1-0.6-0.2c0-0.3,0.1-0.5,0.1-0.8c0.1-0.3,0.2-0.5,0.3-0.8c0.3,0.1,0.6,0.2,0.9,0.3
			s0.6,0.1,0.9,0.1c0.1,0,0.3,0,0.5,0s0.3-0.1,0.5-0.1c0.1-0.1,0.3-0.1,0.4-0.3c0.1-0.1,0.1-0.2,0.1-0.4c0-0.2-0.1-0.4-0.2-0.5
			c-0.1-0.1-0.3-0.2-0.6-0.3L130.9,59.8z"/>
	</g>
</g>
<g id="Ref" class="st23">
</g>
</svg>
