<?xml version="1.0" encoding="utf-8"?>
<!-- Generator: Adobe Illustrator 23.0.0, SVG Export Plug-In . SVG Version: 6.00 Build 0)  -->
<svg version="1.1" xmlns="http://www.w3.org/2000/svg" xmlns:xlink="http://www.w3.org/1999/xlink" x="0px" y="0px"
	 viewBox="0 0 192 192" style="enable-background:new 0 0 192 192;" xml:space="preserve">
<style type="text/css">
	.st0{fill:#F6F6F6;}
	.st1{fill:#612960;}
	.st2{fill:#E97F24;}
	.st3{fill:none;stroke:#E87F24;stroke-width:4;stroke-linecap:round;stroke-linejoin:round;stroke-miterlimit:10;}
	.st4{fill:#612860;stroke:#E87F24;stroke-width:4;stroke-miterlimit:10;}
	.st5{fill:#F48320;}
	.st6{clip-path:url(#SVGID_6_);fill:#612960;}
	.st7{fill:none;stroke:#000000;stroke-width:2;stroke-miterlimit:10;}
	.st8{display:none;fill:#612960;}
	.st9{fill:#FFFFFF;}
	.st10{fill:#F58520;}
	.st11{clip-path:url(#SVGID_16_);fill:#612960;}
	.st12{clip-path:url(#SVGID_34_);fill:#612960;}
	.st13{fill:none;stroke:#E87F24;stroke-width:4;stroke-linecap:round;stroke-linejoin:round;}
	.st14{fill:none;stroke:#E87F24;stroke-width:2.7;stroke-linecap:round;stroke-linejoin:round;}
	.st15{fill:none;stroke:#E87F24;stroke-width:2;stroke-linecap:round;stroke-linejoin:round;stroke-miterlimit:10;}
	.st16{fill:#612860;stroke:#E87F24;stroke-width:2;stroke-miterlimit:10;}
	.st17{fill:none;stroke:#E87F26;stroke-width:4;stroke-linecap:round;stroke-miterlimit:10;}
	.st18{fill:#E87F26;}
	.st19{fill:#E97F24;stroke:#E87F26;stroke-width:0.5;stroke-miterlimit:10;}
	.st20{fill:#E97F24;stroke:#E97F24;stroke-width:0.75;stroke-miterlimit:10;}
	.st21{fill:none;stroke:#E97F24;stroke-width:3.5;stroke-miterlimit:10;}
	.st22{fill:#424143;}
	.st23{display:none;}
	.st24{display:inline;}
</style>
<g id="Layer_1">
	<rect x="-221.6" y="-10.1" class="st8" width="1273" height="216"/>
</g>
<g id="Menu">
</g>
<g id="Layer_3">
</g>
<g id="Layer_4">
</g>
<g id="Layer_5">
</g>
<g id="Layer_7">
</g>
<g id="Divisores">
</g>
<g id="Menu_1_">
</g>
<g id="Layer_9">
</g>
<g id="Layer_10">
</g>
<g id="Layer_11">
</g>
<g id="Iconos_de_servicios">
	<g>
		<g>
			<circle class="st0" cx="96" cy="96" r="94.1"/>
		</g>
	</g>
	<g>
		<g>
			<path class="st2" d="M106.2,144.9c-0.9-0.1-1.5-0.9-1.4-1.8c0.1-0.9,0.9-1.5,1.8-1.4c25.2,2.5,47.8-15.9,50.3-41.1
				c0.1-0.9,0.9-1.5,1.8-1.4c0.9,0.1,1.5,0.9,1.4,1.8C157.3,127.9,133.2,147.6,106.2,144.9z"/>
			<path class="st2" d="M63.6,92.9c-0.9-0.1-1.5-0.9-1.4-1.8c2.7-27,26.9-46.7,53.8-44c0.9,0.1,1.5,0.9,1.4,1.8
				c-0.1,0.9-0.9,1.5-1.8,1.4c-25.2-2.5-47.8,15.9-50.3,41.1C65.3,92.3,64.5,92.9,63.6,92.9z"/>
			<path class="st2" d="M110.4,102.7c-3.7-0.4-6.4-3.7-6-7.3c0.4-3.7,3.7-6.4,7.3-6c3.7,0.4,6.4,3.7,6,7.3
				C117.4,100.4,114.1,103,110.4,102.7z M111.4,92.5c-1.9-0.2-3.6,1.2-3.8,3.1s1.2,3.6,3.1,3.8c1.9,0.2,3.6-1.2,3.8-3.1
				C114.7,94.4,113.3,92.7,111.4,92.5z"/>
			<path class="st2" d="M114.5,94.1c-0.3,0-0.7-0.2-1-0.6c-0.6-0.7-0.5-1.7,0.2-2.3c0,0,0.1-0.1,0.1-0.1
				c0.7-0.5,13.1-10.1,17.8-13.7c0.7-0.5,1.7-0.4,2.3,0.3c0.5,0.7,0.4,1.7-0.3,2.3l-17.1,13.2C115.9,93.6,115.2,94.2,114.5,94.1z"/>
			<path class="st2" d="M109.4,112.6c-0.9-0.1-1.5-0.9-1.4-1.8l1-9.9c0.1-0.9,0.9-1.5,1.8-1.4c0.9,0.1,1.5,0.9,1.4,1.8l-1,9.9
				C111.1,112,110.3,112.6,109.4,112.6z"/>
			<path class="st2" d="M151.8,85.1c-6-22.4-29.1-35.8-51.5-29.8c-16.8,4.5-28.9,18.5-31,35.8c0,0.1,0,0.2,0,0.3
				c-0.3,3-0.3,6.2,0,9.1c0,0.1,0,0.2,0,0.4c0,0.3,0.1,0.6,0.1,0.9c0,0.2,0,0.4,0.1,0.6c0,0,0,0,0,0c0.2,1.5,0.5,3,0.9,4.4
				c6,22.4,29.1,35.8,51.5,29.8c9.3-2.5,17.6-8.2,23.3-16c0.1-0.1,0.1-0.1,0.1-0.2c0.2-0.3,0.4-0.6,0.6-0.9c1.7-2.5,3-5.1,4.1-7.7
				c0,0,0-0.1,0-0.1c0.3-0.8,0.6-1.6,0.9-2.5c0,0,0,0,0,0c0,0,0,0,0,0C153.7,101.5,153.9,93.2,151.8,85.1z M148,108.3
				C148,108.3,147.9,108.3,148,108.3c-1.1,3.3-2.7,6.5-4.7,9.5c-0.5,0.7-1,1.4-1.5,2.1c0,0,0,0,0,0c-0.5,0.7-1.1,1.3-1.6,2
				c-5,5.6-11.6,9.7-19,11.7c-20.7,5.5-42.1-6.8-47.6-27.5c-0.5-1.7-0.8-3.5-1-5.3c-0.4-3.4-0.4-7.1,0.2-10.5c0,0,0,0,0,0
				C75,74.9,86,62.5,101.1,58.4c20.7-5.5,42.1,6.8,47.6,27.5C150.6,93.4,150.4,101.1,148,108.3z"/>
		</g>
		<path class="st2" d="M52.5,111.6H35.6c-0.9,0-1.6-0.7-1.6-1.6s0.7-1.6,1.6-1.6h16.9c0.9,0,1.6,0.7,1.6,1.6S53.4,111.6,52.5,111.6z
			"/>
		<path class="st2" d="M56.5,97.6H33.6c-0.9,0-1.6-0.7-1.6-1.6s0.7-1.6,1.6-1.6h22.9c0.9,0,1.6,0.7,1.6,1.6S57.4,97.6,56.5,97.6z"/>
		<path class="st2" d="M54.5,83.6H37.6c-0.9,0-1.6-0.7-1.6-1.6s0.7-1.6,1.6-1.6h16.9c0.9,0,1.6,0.7,1.6,1.6S55.4,83.6,54.5,83.6z"/>
		<path class="st2" d="M53.5,124.6H40.6c-0.9,0-1.6-0.7-1.6-1.6s0.7-1.6,1.6-1.6h12.9c0.9,0,1.6,0.7,1.6,1.6S54.4,124.6,53.5,124.6z
			"/>
		<path class="st2" d="M59.5,69.6H46.6c-0.9,0-1.6-0.7-1.6-1.6s0.7-1.6,1.6-1.6h12.9c0.9,0,1.6,0.7,1.6,1.6S60.4,69.6,59.5,69.6z"/>
	</g>
</g>
<g id="Ref" class="st23">
</g>
</svg>
