<?xml version="1.0" encoding="utf-8"?>
<!-- Generator: Adobe Illustrator 23.0.0, SVG Export Plug-In . SVG Version: 6.00 Build 0)  -->
<svg version="1.1" xmlns="http://www.w3.org/2000/svg" xmlns:xlink="http://www.w3.org/1999/xlink" x="0px" y="0px"
	 viewBox="0 0 192 192" style="enable-background:new 0 0 192 192;" xml:space="preserve">
<style type="text/css">
	.st0{fill:#F6F6F6;}
	.st1{fill:#612960;}
	.st2{fill:#E97F24;}
	.st3{fill:none;stroke:#E87F24;stroke-width:4;stroke-linecap:round;stroke-linejoin:round;stroke-miterlimit:10;}
	.st4{fill:#612860;stroke:#E87F24;stroke-width:4;stroke-miterlimit:10;}
	.st5{fill:#F48320;}
	.st6{clip-path:url(#SVGID_6_);fill:#612960;}
	.st7{fill:none;stroke:#000000;stroke-width:2;stroke-miterlimit:10;}
	.st8{display:none;fill:#612960;}
	.st9{fill:#FFFFFF;}
	.st10{fill:#F58520;}
	.st11{clip-path:url(#SVGID_16_);fill:#612960;}
	.st12{clip-path:url(#SVGID_34_);fill:#612960;}
	.st13{fill:none;stroke:#E87F24;stroke-width:4;stroke-linecap:round;stroke-linejoin:round;}
	.st14{fill:none;stroke:#E87F24;stroke-width:2.7;stroke-linecap:round;stroke-linejoin:round;}
	.st15{fill:none;stroke:#E87F24;stroke-width:2;stroke-linecap:round;stroke-linejoin:round;stroke-miterlimit:10;}
	.st16{fill:#612860;stroke:#E87F24;stroke-width:2;stroke-miterlimit:10;}
	.st17{fill:none;stroke:#E87F26;stroke-width:4;stroke-linecap:round;stroke-miterlimit:10;}
	.st18{fill:#E87F26;}
	.st19{fill:#E97F24;stroke:#E87F26;stroke-width:0.5;stroke-miterlimit:10;}
	.st20{fill:#E97F24;stroke:#E97F24;stroke-width:0.75;stroke-miterlimit:10;}
	.st21{fill:none;stroke:#E97F24;stroke-width:3.5;stroke-miterlimit:10;}
	.st22{fill:#424143;}
	.st23{display:none;}
	.st24{display:inline;}
</style>
<g id="Layer_1">
	<rect x="-9.6" y="-10.1" class="st8" width="1273" height="216"/>
</g>
<g id="Menu">
</g>
<g id="Layer_3">
</g>
<g id="Layer_4">
</g>
<g id="Layer_5">
</g>
<g id="Layer_7">
</g>
<g id="Divisores">
</g>
<g id="Menu_1_">
</g>
<g id="Layer_9">
</g>
<g id="Layer_10">
</g>
<g id="Layer_11">
</g>
<g id="Iconos_de_servicios">
	<g>
		<g>
			<circle class="st0" cx="96" cy="96" r="94.1"/>
		</g>
	</g>
	<path class="st2" d="M96.2,77.2h-0.5c-2.6,0-7.6-1-11.2-7.9c-1.7-3.2-2.6-6.9-2.6-10.8v-0.3c0-3.7,2-7.2,5.3-9
		c1.9-1.1,5.1-2.4,8.8-2.4c3.9,0,7.3,1.7,9.5,3.1c2.9,1.9,4.7,5.1,4.7,8.6c0,3.9-0.9,7.7-2.6,10.9C104.1,75.9,99.5,77.2,96.2,77.2z
		 M96,51c-2.9,0-5.3,1-6.8,1.8c-1.9,1.1-3.1,3.1-3.1,5.3v0.3c0,3.2,0.7,6.3,2.1,8.9c2.5,4.7,5.5,5.7,7.5,5.7h0.5
		c3.1,0,5.6-1.9,7.6-5.6c1.4-2.6,2.1-5.7,2.1-8.9c0-2.1-1-4-2.8-5.1C101.5,52.3,98.9,51,96,51z"/>
	<path class="st2" d="M110.1,82.3H81.9c-9.1,0-16.6,6.9-16.6,15.3v10.6v1.5v3.1c0,1.2,0.9,2.1,2.1,2.1s2.1-0.9,2.1-2.1v-3.6v-1.1
		V97.6c0-6.1,5.6-11.1,12.4-11.1h28.2c6.8,0,12.4,5,12.4,11.1v10.6v3.8v0.7c0,1.2,0.9,2.1,2.1,2.1s2.1-0.9,2.1-2.1V112v-3.9V97.6
		C126.7,89.1,119.2,82.3,110.1,82.3z"/>
	<path class="st2" d="M129.5,122.8H97.1h-2.1H62.5c-5.1,0-9.3,4.2-9.3,9.3v13.3h4.3v-13.3c0-2.8,2.2-5,5-5h32.4h2.1h32.4
		c2.8,0,5,2.2,5,5v13.3h4.3v-13.3C138.8,127,134.6,122.8,129.5,122.8z"/>
</g>
<g id="Ref" class="st23">
	<g class="st24">
		<path class="st2" d="M140.4,146.2h-36.8c-4.1,0-7.4-3.3-7.4-7.4V102c0-4.1,3.3-7.4,7.4-7.4h36.8c4.1,0,7.4,3.3,7.4,7.4v1.7
			c0,1-0.8,1.7-1.7,1.7c-1,0-1.7-0.8-1.7-1.7V102c0-2.2-1.8-4-4-4h-36.8c-2.2,0-4,1.8-4,4v36.8c0,2.2,1.8,4,4,4h36.8
			c2.2,0,4-1.8,4-4v-23.5c0-1,0.8-1.7,1.7-1.7c1,0,1.7,0.8,1.7,1.7v23.5C147.8,142.9,144.5,146.2,140.4,146.2z"/>
		<path class="st2" d="M101.9,84.3c0.2,0.6,0.1,1.1-0.1,1.7c-0.3,0.5-0.7,0.9-1.2,1.1c-0.2,0.1-0.3,0.1-0.4,0.1c-0.1,0-0.2,0-0.4,0
			c-0.4,0-0.8-0.1-1.2-0.4c-0.4-0.3-0.7-0.6-0.9-1l-1.6-4.2H84.8c-0.3,0.7-0.5,1.4-0.8,2.1c-0.3,0.7-0.5,1.4-0.8,2.1
			c-0.2,0.4-0.4,0.7-0.8,1c-0.4,0.3-0.8,0.4-1.3,0.4c-0.1,0-0.2,0-0.3,0c-0.1,0-0.2,0-0.4-0.1c-0.6-0.3-1-0.6-1.3-1.2
			c-0.3-0.5-0.3-1.1-0.1-1.7c0,0,9.3-25.5,9.3-25.5c0.2-0.4,0.4-0.8,0.8-1c0.4-0.3,0.7-0.4,1.2-0.4c0.5-0.1,0.9,0.1,1.4,0.3
			c0.5,0.3,0.8,0.7,0.9,1.2C92.5,58.7,101.9,84.2,101.9,84.3L101.9,84.3z M94.6,77.1l-4.1-11.3c-0.4,1-0.7,1.9-1,2.8
			c-0.3,0.9-0.7,1.8-1,2.7c-0.3,0.9-0.7,1.8-1,2.8c-0.4,0.9-0.7,2-1.1,3H94.6z"/>
		<path class="st2" d="M129.2,118.8c-0.1,0.1-0.1,0.2-0.2,0.3c-0.1,0.1-0.1,0.2-0.2,0.3c1,0.7,1.7,1.5,2.3,2.5
			c0.4,0.7,0.7,1.5,0.9,2.3c0.2,0.8,0.3,1.7,0.3,2.5s-0.1,1.7-0.3,2.5c-0.2,0.8-0.5,1.6-0.9,2.3c-0.7,1.2-1.6,2.1-2.8,2.8
			c-1.1,0.7-2.4,1-3.7,1h-10.7c-0.5,0-1-0.2-1.4-0.5c-0.4-0.3-0.7-0.8-0.8-1.4c0,0,0-26.1,0-26.1c0-0.6,0.2-1.2,0.7-1.6
			c0.4-0.4,1-0.6,1.6-0.6h8.8c1.4,0,2.6,0.3,3.7,1c1.1,0.7,2.1,1.6,2.8,2.8c0.4,0.7,0.7,1.5,0.9,2.4c0.2,0.8,0.3,1.7,0.3,2.5
			c0,0.9-0.1,1.7-0.3,2.6C129.9,117.3,129.6,118.1,129.2,118.8L129.2,118.8z M116.1,118.2h6.6c0.7,0,1.3-0.2,1.8-0.5
			c0.4-0.4,0.8-0.7,1-1.1c0.2-0.3,0.4-0.8,0.5-1.2c0.1-0.5,0.2-0.9,0.2-1.4c0-0.5-0.1-1-0.2-1.4c-0.1-0.5-0.3-0.9-0.5-1.3
			c-0.2-0.3-0.5-0.7-0.9-1c-0.4-0.4-1-0.5-1.8-0.5h-6.6V118.2z M127.3,129.6c0.2-0.4,0.4-0.8,0.5-1.3c0.1-0.5,0.2-0.9,0.2-1.4
			c0-0.5-0.1-1-0.2-1.4c-0.1-0.5-0.3-0.9-0.5-1.3c-0.2-0.3-0.5-0.7-0.9-1c-0.4-0.3-1-0.5-1.8-0.5h-8.5v8.5h8.5
			c0.8,0,1.3-0.2,1.8-0.5C126.8,130.3,127.1,129.9,127.3,129.6L127.3,129.6z"/>
		<path class="st2" d="M72.1,134.3c-0.9-0.4-1.7-0.9-2.5-1.4c-0.8-0.5-1.5-1.1-2.2-1.9c-0.7-0.7-1.4-1.4-1.9-2.2
			c-0.5-0.8-1-1.7-1.4-2.6c-0.8-1.9-1.2-3.8-1.2-5.8c0-2,0.4-4,1.2-5.9c0.4-0.9,0.8-1.7,1.4-2.6c0.6-0.8,1.2-1.6,1.9-2.2
			c0.7-0.7,1.4-1.3,2.2-1.8c0.8-0.6,1.7-1,2.5-1.4c1.9-0.8,3.8-1.2,5.9-1.2c0.8,0,1.6,0.1,2.5,0.2c0.8,0.2,1.7,0.4,2.5,0.6
			c0.6,0.2,1,0.6,1.3,1.1c0.3,0.5,0.3,1.1,0.1,1.7c-0.2,0.5-0.6,0.9-1.1,1.2c-0.5,0.3-1.1,0.4-1.7,0.2c-1.1-0.4-2.2-0.6-3.5-0.6
			c-1.5,0-2.9,0.3-4.2,0.8c-1.3,0.6-2.4,1.3-3.4,2.3c-1,1-1.7,2.1-2.3,3.4c-0.6,1.3-0.8,2.7-0.8,4.2c0,1.5,0.3,2.9,0.8,4.2
			c0.6,1.3,1.3,2.4,2.3,3.4c1,1,2.1,1.7,3.4,2.3c1.3,0.6,2.7,0.8,4.2,0.8c1.2,0,2.4-0.2,3.5-0.6c0.5-0.3,1.1-0.2,1.7,0.1
			c0.6,0.3,0.9,0.7,1.1,1.3c0.2,0.6,0.2,1.1-0.1,1.7c-0.3,0.5-0.7,0.9-1.3,1.1c-0.8,0.3-1.6,0.5-2.5,0.6c-0.8,0.1-1.7,0.2-2.5,0.2
			C76,135.5,74,135.1,72.1,134.3z"/>
		<path class="st2" d="M92.1,146.2H55.3c-4.1,0-7.4-3.3-7.4-7.4V102c0-4.1,3.3-7.4,7.4-7.4h10.5c-0.7-1.2-1.2-2.5-1.2-4V65.9
			c0-1,0.8-1.7,1.7-1.7c1,0,1.7,0.8,1.7,1.7v24.7c0,2.2,1.8,4,4,4c1,0,1.7,0.8,1.7,1.7c0,1-0.8,1.7-1.7,1.7H55.3c-2.2,0-4,1.8-4,4
			v36.8c0,2.2,1.8,4,4,4h36.8c2.2,0,4-1.8,4-4V102c0-2.2-1.8-4-4-4c-1,0-1.7-0.8-1.7-1.7c0-1,0.8-1.7,1.7-1.7h16.7c2.2,0,4-1.8,4-4
			V53.8c0-2.2-1.8-4-4-4H72c-2.2,0-4,1.8-4,4v2c0,1-0.8,1.7-1.7,1.7c-1,0-1.7-0.8-1.7-1.7v-2c0-4.1,3.3-7.4,7.4-7.4h36.8
			c4.1,0,7.4,3.3,7.4,7.4v36.8c0,4.1-3.3,7.4-7.4,7.4H98.4c0.7,1.2,1.2,2.5,1.2,4v36.8C99.5,142.9,96.2,146.2,92.1,146.2z"/>
		<path class="st2" d="M121.1,74c0,1,0.8,1.7,1.7,1.7h14.1v11c0,1,0.8,1.7,1.7,1.7c1,0,1.7-0.8,1.7-1.7V74c0-1-0.8-1.7-1.7-1.7
			h-15.8C121.9,72.3,121.1,73.1,121.1,74z"/>
		<path class="st2" d="M136.9,78.9v7.8c0,0.7,0.4,1.3,1.1,1.6c0.6,0.3,1.4,0.1,1.9-0.4l2.2-2.2c0.7-0.7,0.7-1.8,0-2.4
			c-0.5-0.5-1.1-0.6-1.7-0.4v-4c0-1-0.8-1.7-1.7-1.7C137.7,77.2,136.9,77.9,136.9,78.9z"/>
		<path class="st2" d="M134.8,84.6c0,0.4,0.2,0.9,0.5,1.2l2.2,2.2c0.5,0.5,1.2,0.6,1.9,0.4c0.6-0.3,1.1-0.9,1.1-1.6v-7.8
			c0-1-0.8-1.7-1.7-1.7c-1,0-1.7,0.8-1.7,1.7v4c-0.6-0.2-1.2,0-1.7,0.4C134.9,83.7,134.8,84.1,134.8,84.6z"/>
		<path class="st2" d="M92.1,98h-10c-1,0-1.7-0.8-1.7-1.7c0-1,0.8-1.7,1.7-1.7h10c1,0,1.7,0.8,1.7,1.7C93.8,97.3,93,98,92.1,98z"/>
		<path class="st2" d="M151.5,146.2H44.2c-1,0-1.7-0.8-1.7-1.7c0-1,0.8-1.7,1.7-1.7h107.2c1,0,1.7,0.8,1.7,1.7
			C153.2,145.5,152.4,146.2,151.5,146.2z"/>
	</g>
</g>
</svg>
