<?xml version="1.0" encoding="utf-8"?>
<!-- Generator: Adobe Illustrator 23.0.0, SVG Export Plug-In . SVG Version: 6.00 Build 0)  -->
<svg version="1.1" xmlns="http://www.w3.org/2000/svg" xmlns:xlink="http://www.w3.org/1999/xlink" x="0px" y="0px"
	 viewBox="0 0 192 192" style="enable-background:new 0 0 192 192;" xml:space="preserve">
<style type="text/css">
	.st0{fill:#F6F6F6;}
	.st1{fill:#612960;}
	.st2{fill:#E97F24;}
	.st3{fill:none;stroke:#E87F24;stroke-width:4;stroke-linecap:round;stroke-linejoin:round;stroke-miterlimit:10;}
	.st4{fill:#612860;stroke:#E87F24;stroke-width:4;stroke-miterlimit:10;}
	.st5{fill:#F48320;}
	.st6{clip-path:url(#SVGID_6_);fill:#612960;}
	.st7{fill:none;stroke:#000000;stroke-width:2;stroke-miterlimit:10;}
	.st8{display:none;fill:#612960;}
	.st9{fill:#FFFFFF;}
	.st10{fill:#F58520;}
	.st11{clip-path:url(#SVGID_16_);fill:#612960;}
	.st12{clip-path:url(#SVGID_34_);fill:#612960;}
	.st13{fill:none;stroke:#E87F24;stroke-width:4;stroke-linecap:round;stroke-linejoin:round;}
	.st14{fill:none;stroke:#E87F24;stroke-width:2.7;stroke-linecap:round;stroke-linejoin:round;}
	.st15{fill:none;stroke:#E87F24;stroke-width:2;stroke-linecap:round;stroke-linejoin:round;stroke-miterlimit:10;}
	.st16{fill:#612860;stroke:#E87F24;stroke-width:2;stroke-miterlimit:10;}
	.st17{fill:none;stroke:#E87F26;stroke-width:4;stroke-linecap:round;stroke-miterlimit:10;}
	.st18{fill:#E87F26;}
	.st19{fill:#E97F24;stroke:#E87F26;stroke-width:0.5;stroke-miterlimit:10;}
	.st20{fill:#E97F24;stroke:#E97F24;stroke-width:0.75;stroke-miterlimit:10;}
	.st21{fill:none;stroke:#E97F24;stroke-width:3.5;stroke-miterlimit:10;}
	.st22{fill:#424143;}
	.st23{display:none;}
	.st24{display:inline;}
</style>
<g id="Layer_1">
	<rect x="-857.6" y="-10.1" class="st8" width="1273" height="216"/>
</g>
<g id="Menu">
</g>
<g id="Layer_3">
</g>
<g id="Layer_4">
</g>
<g id="Layer_5">
</g>
<g id="Layer_7">
</g>
<g id="Divisores">
</g>
<g id="Menu_1_">
</g>
<g id="Layer_9">
</g>
<g id="Layer_10">
</g>
<g id="Layer_11">
</g>
<g id="Iconos_de_servicios">
	<g>
		<g>
			<circle class="st0" cx="96" cy="96" r="94.1"/>
		</g>
	</g>
	<g>
		<path class="st20" d="M113.7,105.6c-0.6,0-1.3-0.2-1.7-0.7c-0.5-0.5-0.7-1.1-0.8-1.7l-0.1-6.2c-2.5-0.6-4.9-1.6-7.2-2.9l-4.3,4.5
			c-0.5,0.5-1.1,0.7-1.7,0.8c-0.7,0-1.3-0.2-1.8-0.7l-6.5-6.3c-1-0.9-1-2.5-0.1-3.5l4.3-4.4c-1.3-2.2-2.4-4.5-3.1-7l-6.2,0.1
			c-0.6,0-1.3-0.2-1.8-0.7c-0.5-0.5-0.7-1.1-0.8-1.7L82,66c0-1.4,1.1-2.5,2.4-2.5l6.2-0.1c0.6-2.5,1.6-4.9,2.9-7.2L89,51.9
			c-1-0.9-1-2.5-0.1-3.5l6.3-6.5c0.5-0.5,1.1-0.7,1.7-0.8c0.7,0,1.3,0.2,1.8,0.7l4.4,4.3c2.2-1.3,4.5-2.4,7-3.1l-0.1-6.2
			c0-0.7,0.2-1.3,0.7-1.8c0.5-0.5,1.1-0.7,1.7-0.8l9-0.2c0.7,0,1.3,0.2,1.8,0.7c0.5,0.5,0.7,1.1,0.8,1.7l0.1,6.2
			c2.6,0.6,4.9,1.6,7.2,2.9l4.3-4.4c0.5-0.5,1.1-0.7,1.7-0.8c0.7,0,1.3,0.2,1.8,0.7l6.5,6.3c1,0.9,1,2.5,0.1,3.5l-4.3,4.5
			c1.3,2.2,2.4,4.5,3.1,7l6.2-0.1c0.7,0,1.3,0.2,1.8,0.7c0.5,0.5,0.7,1.1,0.8,1.7l0.2,9c0,1.4-1.1,2.5-2.4,2.5l-6.2,0.1
			c-0.6,2.5-1.6,4.9-2.9,7.2l4.4,4.3c0.5,0.5,0.7,1.1,0.8,1.7c0,0.7-0.2,1.3-0.7,1.8l-6.3,6.5c-0.9,1-2.5,1-3.5,0.1l-4.5-4.3
			c-2.2,1.3-4.5,2.4-7,3.1l0.1,6.2c0,1.4-1.1,2.5-2.4,2.5L113.7,105.6C113.8,105.6,113.7,105.6,113.7,105.6z M103.8,91.4
			c0.2,0,0.4,0.1,0.6,0.2c2.3,1.4,4.7,2.4,7.3,3c1.1,0.3,1.9,1.2,1.9,2.4l0.1,6.2l9.1-0.1l-0.1-6.2c0-1.1,0.7-2.1,1.8-2.4
			c2.6-0.7,5-1.8,7.2-3.3c0.5-0.3,1.1-0.3,1.5,0.1l6.1,5.8l-0.9-0.8l6.3-6.5l-5.1-5c-0.4-0.4-0.5-1-0.2-1.5c1.4-2.3,2.4-4.7,3-7.3
			c0.3-1.1,1.2-1.9,2.4-1.9l6.2-0.1l-0.1-9.1l-6.2,0.1c-1.1,0-2.1-0.7-2.4-1.8c-0.7-2.6-1.8-5-3.3-7.2c-0.3-0.5-0.3-1.1,0.1-1.5
			l5-5.1l-6.5-6.3l-5,5.1c-0.4,0.4-1,0.5-1.5,0.2c-2.3-1.4-4.7-2.4-7.3-3c-1.1-0.3-1.9-1.2-1.9-2.4l-0.1-6.2l-9.1,0.1l0.1,6.2
			c0,1.1-0.7,2.1-1.8,2.4c-2.6,0.7-5,1.8-7.2,3.3c-0.5,0.3-1.1,0.3-1.5-0.1l-5.1-5l-6.3,6.5l5.1,5c0.4,0.4,0.5,1,0.2,1.5
			c-1.4,2.3-2.4,4.7-3,7.3c-0.3,1.1-1.2,1.9-2.4,1.9l-6.2,0.1l0.1,9.1l6.2-0.1c1.1,0,2.1,0.7,2.4,1.8c0.7,2.6,1.8,5,3.3,7.2
			c0.3,0.5,0.3,1.1-0.1,1.5l-5,5.1l6.5,6.3l5-5.1C103.1,91.6,103.4,91.4,103.8,91.4z"/>
		<circle class="st21" cx="117.7" cy="69.9" r="19.2"/>
	</g>
	<g>
		<path class="st2" d="M67.8,101.7h-0.5c-2.5,0-7.2-1-10.6-7.5c-1.6-3-2.4-6.6-2.4-10.2v-0.3c0-3.5,1.9-6.8,5-8.5
			c1.8-1,4.8-2.2,8.3-2.2c3.7,0,7,1.6,9,2.9c2.8,1.8,4.4,4.8,4.4,8.2c0,3.7-0.9,7.3-2.5,10.3C75.3,100.4,70.9,101.7,67.8,101.7z
			 M67.6,76.9c-2.7,0-5,0.9-6.4,1.7c-1.8,1-3,2.9-3,5.1V84c0,3.1,0.7,6,2,8.4c2.3,4.4,5.2,5.4,7.1,5.4h0.5c2.9,0,5.3-1.8,7.2-5.3
			c1.3-2.5,2-5.4,2-8.5c0-2-1-3.8-2.6-4.8C72.8,78.1,70.3,76.9,67.6,76.9z"/>
		<path class="st2" d="M67.5,150.4c-9.7,0-19.1-2.7-27.1-7.9c-1.2-0.8-2-2.1-2-3.6v-19.2c0-8,7-14.5,15.7-14.5h26.7
			c8.7,0,15.7,6.5,15.7,14.5v19.2c0,1.4-0.7,2.8-2,3.6C86.6,147.7,77.2,150.4,67.5,150.4z M54.2,109.1c-6.5,0-11.8,4.7-11.8,10.6
			v19.2c0,0.1,0.1,0.2,0.2,0.3c7.3,4.8,15.9,7.3,24.9,7.3s17.6-2.5,24.9-7.3c0.1-0.1,0.2-0.2,0.2-0.3v-19.2
			c0-5.8-5.3-10.6-11.7-10.6H54.2z"/>
		<path class="st2" d="M52.6,145.2c1.4,0,2.6,0.3,3.6,0.8v-24.3c0-1.1-0.9-2-2-2c-1.1,0-2,0.9-2,2v23.5
			C52.3,145.2,52.4,145.2,52.6,145.2z"/>
		<path class="st2" d="M79.5,145.2c1.4,0,2.6,0.3,3.6,0.8v-24.3c0-1.1-0.9-2-2-2c-1.1,0-2,0.9-2,2v23.5
			C79.2,145.2,79.3,145.2,79.5,145.2z"/>
	</g>
</g>
<g id="Ref" class="st23">
</g>
</svg>
