<?xml version="1.0" encoding="utf-8"?>
<!-- Generator: Adobe Illustrator 23.0.0, SVG Export Plug-In . SVG Version: 6.00 Build 0)  -->
<svg version="1.1" xmlns="http://www.w3.org/2000/svg" xmlns:xlink="http://www.w3.org/1999/xlink" x="0px" y="0px"
	 viewBox="0 0 192 192" style="enable-background:new 0 0 192 192;" xml:space="preserve">
<style type="text/css">
	.st0{fill:#F6F6F6;}
	.st1{fill:#612960;}
	.st2{fill:#E97F24;}
	.st3{fill:none;stroke:#E87F24;stroke-width:4;stroke-linecap:round;stroke-linejoin:round;stroke-miterlimit:10;}
	.st4{fill:#612860;stroke:#E87F24;stroke-width:4;stroke-miterlimit:10;}
	.st5{fill:#F48320;}
	.st6{clip-path:url(#SVGID_6_);fill:#612960;}
	.st7{fill:none;stroke:#000000;stroke-width:2;stroke-miterlimit:10;}
	.st8{fill:#FFFFFF;}
	.st9{fill:#F58520;}
	.st10{clip-path:url(#SVGID_16_);fill:#612960;}
	.st11{clip-path:url(#SVGID_34_);fill:#612960;}
</style>
<g id="Layer_1">
</g>
<g id="Menu">
</g>
<g id="Layer_3">
</g>
<g id="Layer_4">
</g>
<g id="Layer_5">
</g>
<g id="Layer_7">
</g>
<g id="Divisores">
</g>
<g id="Menu_1_">
</g>
<g id="Layer_9">
</g>
<g id="Layer_10">
</g>
<g id="Layer_11">
</g>
<g id="Iconos_de_servicios">
	<g>
		<g>
			<circle class="st1" cx="96" cy="96" r="94.1"/>
		</g>
		<g>
			<path class="st2" d="M85.2,149.4c-8.8,0-16.4-6.3-18.2-14.8c-8.4-2.1-14.3-9.7-14.3-18.5c0-0.1,0-0.3,0-0.4
				c-4.4-3.8-6.9-9.2-6.9-15c0-6.2,2.9-12.1,7.9-15.8c-0.5-1.5-0.8-3.1-0.8-4.7c0-7.7,5.8-14,13.3-14.8c0.8-9.6,8.9-17.2,18.8-17.2
				c10.4,0,18.8,8.4,18.8,18.8v63.8C103.7,141.1,95.4,149.4,85.2,149.4z M84.9,51.6c-8.5,0-15.4,6.9-15.4,15.4
				c0,0.9-0.8,1.7-1.7,1.7c-6.3,0-11.5,5.2-11.5,11.5c0,1.6,0.3,3.2,1,4.7c0.3,0.8,0.1,1.7-0.6,2.1c-4.7,3-7.5,8.2-7.5,13.7
				c0,5,2.3,9.7,6.3,12.9c0.4,0.3,0.7,0.9,0.6,1.5l0,0.2c0,0.3,0,0.6,0,0.9c0,7.5,5.4,14,12.7,15.4c0.7,0.1,1.3,0.7,1.4,1.4
				c1.1,7.4,7.5,13,15,13c8.4,0,15.2-6.8,15.2-15.2V67C100.3,58.5,93.4,51.6,84.9,51.6z"/>
			<path class="st2" d="M70.7,78.3c-0.5,0-1.1-0.3-1.4-0.8c-2.1-3.1-3.2-6.8-3.2-10.5c0-0.9,0.8-1.7,1.7-1.7c0.9,0,1.7,0.8,1.7,1.7
				c0,3.1,0.9,6.1,2.6,8.6c0.5,0.8,0.3,1.8-0.5,2.4C71.4,78.2,71.1,78.3,70.7,78.3z"/>
			<path class="st2" d="M53,89.5c-0.4,0-0.9-0.2-1.2-0.5c-0.7-0.7-0.6-1.8,0-2.4c2.9-2.9,6.6-4.7,10.7-5.4c0.9-0.2,1.8,0.5,2,1.4
				c0.1,0.9-0.5,1.8-1.4,2c-3.3,0.5-6.4,2.1-8.8,4.5C53.8,89.3,53.4,89.5,53,89.5z"/>
			<path class="st2" d="M71.7,135.2c-10.5,0-19.1-8.6-19.1-19.1c0-3.3,0.9-6.6,2.5-9.5c0.5-0.8,1.5-1.1,2.3-0.6
				c0.8,0.5,1.1,1.5,0.6,2.3c-1.4,2.4-2.1,5.1-2.1,7.8c0,8.6,7,15.7,15.7,15.7c3.3,0,6.5-1,9.1-2.9c0.8-0.5,1.8-0.4,2.4,0.4
				c0.6,0.8,0.4,1.8-0.4,2.4C79.6,134,75.7,135.2,71.7,135.2z"/>
			<path class="st2" d="M102,149.4c-0.9,0-1.7-0.8-1.7-1.7V49.9c0-0.9,0.8-1.7,1.7-1.7c0.9,0,1.7,0.8,1.7,1.7v97.8
				C103.7,148.6,103,149.4,102,149.4z"/>
			<path class="st2" d="M116.3,75.9c-0.3,0-0.6-0.1-0.9-0.2c-0.8-0.5-1.1-1.5-0.6-2.3l3.7-6.5c0.5-0.8,1.5-1.1,2.3-0.6
				c0.8,0.5,1.1,1.5,0.6,2.3l-3.7,6.5C117.4,75.6,116.8,75.9,116.3,75.9z"/>
			<path class="st2" d="M126.7,86.3c-0.6,0-1.2-0.3-1.5-0.9c-0.5-0.8-0.2-1.9,0.6-2.3l6.5-3.7c0.8-0.5,1.9-0.2,2.3,0.6
				c0.5,0.8,0.2,1.9-0.6,2.3l-6.5,3.7C127.2,86.2,127,86.3,126.7,86.3z"/>
			<path class="st2" d="M138,100.5h-7.5c-0.9,0-1.7-0.8-1.7-1.7c0-0.9,0.8-1.7,1.7-1.7h7.5c0.9,0,1.7,0.8,1.7,1.7
				C139.7,99.7,138.9,100.5,138,100.5z"/>
			<path class="st2" d="M133.2,118.5c-0.3,0-0.6-0.1-0.9-0.2l-6.5-3.7c-0.8-0.5-1.1-1.5-0.6-2.3c0.5-0.8,1.5-1.1,2.3-0.6l6.5,3.7
				c0.8,0.5,1.1,1.5,0.6,2.3C134.3,118.1,133.7,118.5,133.2,118.5z"/>
			<path class="st2" d="M120,131.6c-0.6,0-1.2-0.3-1.5-0.9l-3.7-6.5c-0.5-0.8-0.2-1.9,0.6-2.3c0.8-0.5,1.9-0.2,2.3,0.6l3.7,6.5
				c0.5,0.8,0.2,1.9-0.6,2.3C120.6,131.5,120.3,131.6,120,131.6z"/>
			<path class="st2" d="M102,142.9c-0.9,0-1.7-0.8-1.7-1.7V56.3c0-0.9,0.8-1.7,1.7-1.7c3.3,0,6.7,0.4,9.9,1.1c0.9,0.2,1.5,1.1,1.3,2
				c-0.2,0.9-1.1,1.5-2,1.3c-2.4-0.6-4.9-0.9-7.4-1v81.4c21.7-0.9,39-18.8,39-40.7c0-14.7-8-28.4-20.9-35.6
				c-0.8-0.5-1.1-1.5-0.7-2.3c0.5-0.8,1.5-1.1,2.3-0.7c14,7.8,22.6,22.6,22.6,38.6C146.2,123.1,126.4,142.9,102,142.9z"/>
			<path class="st2" d="M102,110c-0.9,0-1.7-0.8-1.7-1.7V89.3c0-0.9,0.8-1.7,1.7-1.7c6.2,0,11.2,5,11.2,11.2
				C113.3,105,108.2,110,102,110z M103.7,91.1v15.3c3.5-0.8,6.1-3.9,6.1-7.6C109.9,95.1,107.2,91.9,103.7,91.1z"/>
			<path class="st2" d="M109.2,94.2c-0.4,0-0.8-0.2-1.2-0.5c-0.7-0.6-0.7-1.7-0.1-2.4l10-10.5c0.7-0.7,1.7-0.7,2.4-0.1
				c0.7,0.6,0.7,1.7,0.1,2.4l-10,10.5C110.1,94,109.6,94.2,109.2,94.2z"/>
			<path class="st2" d="M114.2,112.3c-0.5,0-0.9-0.2-1.3-0.6l-5-5.5c-0.6-0.7-0.6-1.8,0.1-2.4c0.7-0.6,1.8-0.6,2.4,0.1l5,5.5
				c0.6,0.7,0.6,1.8-0.1,2.4C115,112.2,114.6,112.3,114.2,112.3z"/>
		</g>
	</g>
</g>
</svg>
