<?xml version="1.0" encoding="utf-8"?>
<!-- Generator: Adobe Illustrator 23.0.0, SVG Export Plug-In . SVG Version: 6.00 Build 0)  -->
<svg version="1.1" xmlns="http://www.w3.org/2000/svg" xmlns:xlink="http://www.w3.org/1999/xlink" x="0px" y="0px"
	 viewBox="0 0 110 110" style="enable-background:new 0 0 110 110;" xml:space="preserve">
<style type="text/css">
	.st0{display:none;}
	.st1{display:inline;fill:#602366;}
	.st2{display:inline;fill:none;stroke:#CADA2A;stroke-width:3;stroke-miterlimit:10;}
	.st3{display:inline;opacity:0.6;fill:none;stroke:#EA7F23;stroke-width:6;stroke-linecap:round;stroke-miterlimit:10;}
	.st4{display:inline;fill:none;stroke:#E97F24;stroke-width:6;stroke-linecap:round;stroke-miterlimit:10;}
	.st5{display:inline;fill:#EA7F23;}
	.st6{display:inline;}
	.st7{fill:#EA7F23;}
	.st8{display:inline;fill:none;stroke:#CADA2A;stroke-width:6;stroke-miterlimit:10;}
	.st9{display:inline;fill:none;stroke:#CADA2A;stroke-width:6;stroke-linecap:round;stroke-miterlimit:10;}
	.st10{display:inline;fill:#E97F24;}
	.st11{fill:#612960;}
	.st12{fill:#FFFFFF;}
	.st13{fill:#F58520;}
	.st14{fill:#E97F24;}
	.st15{display:inline;fill:#F58520;}
	.st16{display:inline;fill:#612960;}
	.st17{display:inline;fill:none;stroke:#E97F24;stroke-width:5;stroke-miterlimit:10;}
	.st18{display:inline;fill:#FFFFFF;}
	.st19{display:inline;fill:none;stroke:#E97F24;stroke-width:5;stroke-linecap:round;stroke-miterlimit:10;}
	.st20{fill:none;stroke:#E97F24;stroke-width:4.19;stroke-miterlimit:10;}
	.st21{display:none;fill:#E97F24;}
	.st22{fill:#424143;}
	.st23{fill:none;stroke:#000000;stroke-linecap:round;stroke-linejoin:round;stroke-miterlimit:10;}
	.st24{fill:#F0592A;}
	.st25{fill:none;stroke:#E97F24;stroke-width:3;stroke-linecap:round;stroke-miterlimit:10;}
	.st26{fill:none;stroke:#E97F24;stroke-width:2;stroke-miterlimit:10;}
	.st27{fill:none;stroke:#E87F24;stroke-width:2;stroke-linecap:round;stroke-linejoin:round;stroke-miterlimit:10;}
	.st28{fill:none;stroke:#E87F26;stroke-width:2;stroke-miterlimit:10;}
	.st29{fill-rule:evenodd;clip-rule:evenodd;fill:#E87F26;}
	.st30{fill:#E87F26;}
	.st31{fill:#231F20;}
	.st32{fill:none;stroke:#BE1E2D;stroke-miterlimit:10;}
	.st33{fill-rule:evenodd;clip-rule:evenodd;fill:#FFFFFF;}
	.st34{fill:#222221;}
	.st35{fill-rule:evenodd;clip-rule:evenodd;fill:#222221;}
	.st36{fill:#612860;stroke:#E87F24;stroke-width:2;stroke-miterlimit:10;}
	.st37{clip-path:url(#SVGID_2_);fill:#612960;}
	.st38{clip-path:url(#SVGID_2_);fill:url(#);}
	.st39{fill:none;stroke:#E87F24;stroke-width:2.7;stroke-linecap:round;stroke-linejoin:round;}
	.st40{fill:none;stroke:#E87F24;stroke-linecap:round;stroke-linejoin:round;}
	.st41{fill:none;stroke:#000000;stroke-linecap:round;stroke-miterlimit:10;}
	.st42{fill:none;stroke:#E87F26;stroke-width:2.7;stroke-linecap:round;stroke-miterlimit:10;}
	.st43{fill:none;stroke:#E87F24;stroke-width:2.87;stroke-linecap:round;stroke-linejoin:round;stroke-miterlimit:10;}
	.st44{fill:none;stroke:#E87F26;stroke-width:2;stroke-linecap:round;stroke-linejoin:round;stroke-miterlimit:10;}
</style>
<g id="Referencias" class="st0">
</g>
<g id="Layer_46">
</g>
<g id="Layer_45">
</g>
<g id="Layer_1">
</g>
<g id="Otras_propuestas" class="st0">
</g>
<g id="Otras_propuestas_1_">
</g>
<g id="Background">
</g>
<g id="Layer_4">
</g>
<g id="Layer_5">
</g>
<g id="Layer_6">
</g>
<g id="Layer_7">
</g>
<g id="Texto">
</g>
<g id="Fondos_Iconos">
</g>
<g id="Iconos">
</g>
<g id="Layer_9">
</g>
<g id="Reticula" class="st0">
</g>
<g id="Tarjeta_de_presentación">
</g>
<g id="Iconos_de_redes_sociales" class="st0">
</g>
<g id="Layer_19">
</g>
<g id="Layer_18">
</g>
<g id="Layer_17">
</g>
<g id="Layer_16">
</g>
<g id="Layer_15">
</g>
<g id="Layer_21">
</g>
<g id="Layer_20">
</g>
<g id="Layer_13">
</g>
<g id="Tarjetas_corporativas">
</g>
<g id="Firmas_corporativas">
</g>
<g id="Datos" class="st0">
</g>
<g id="Layer_23">
</g>
<g id="Layer_26">
</g>
<g id="Layer_27">
</g>
<g id="Layer_28">
</g>
<g id="Layer_29">
</g>
<g id="Layer_31">
</g>
<g id="Layer_33">
</g>
<g id="Layer_34">
</g>
<g id="Layer_35" class="st0">
</g>
<g id="Layer_36">
	<path class="st14" d="M43.5,56.7h-0.3c-1.6,0-4.6-0.6-6.7-4.7c-1-1.9-1.5-4.1-1.5-6.5v-0.2c0-2.2,1.2-4.3,3.2-5.4
		c1.2-0.6,3-1.4,5.3-1.4c2.4,0,4.4,1,5.7,1.8c1.8,1.1,2.8,3.1,2.8,5.2c0,2.4-0.5,4.6-1.6,6.5C48.2,55.9,45.4,56.7,43.5,56.7z
		 M43.3,41c-1.7,0-3.2,0.6-4.1,1.1c-1.2,0.6-1.9,1.9-1.9,3.2v0.2c0,1.9,0.4,3.8,1.3,5.3c1.5,2.8,3.3,3.4,4.5,3.4h0.3
		c1.8,0,3.4-1.1,4.6-3.3c0.8-1.6,1.3-3.4,1.3-5.4c0-1.2-0.6-2.4-1.7-3.1C46.6,41.8,45.1,41,43.3,41z"/>
	<path class="st14" d="M43.3,88.3c-6.2,0-12.1-1.7-17.1-5c-0.8-0.5-1.3-1.4-1.3-2.3V68.9c0-5.1,4.5-9.2,9.9-9.2h16.9
		c5.5,0,9.9,4.1,9.9,9.2v12.1c0,0.9-0.5,1.7-1.3,2.3C55.4,86.6,49.4,88.3,43.3,88.3z M34.8,62.2c-4.1,0-7.4,3-7.4,6.7v12.1
		c0,0.1,0,0.1,0.1,0.2c4.6,3,10.1,4.6,15.7,4.6s11.1-1.6,15.7-4.6c0.1,0,0.1-0.1,0.1-0.2V68.9c0-3.7-3.3-6.7-7.4-6.7H34.8z"/>
	<path class="st14" d="M33.8,85c0.9,0,1.7,0.2,2.3,0.5V70.2c0-0.7-0.6-1.3-1.3-1.3c-0.7,0-1.3,0.6-1.3,1.3v14.9
		C33.6,85.1,33.7,85,33.8,85z"/>
	<path class="st14" d="M50.8,85c0.9,0,1.7,0.2,2.3,0.5V70.2c0-0.7-0.6-1.3-1.3-1.3c-0.7,0-1.3,0.6-1.3,1.3v14.9
		C50.6,85.1,50.7,85,50.8,85z"/>
	<path class="st14" d="M92.9,30c-0.6-5.9-5.3-10.7-11.2-11.3c-0.4,0-0.7-0.1-1.1-0.1l0,0c-0.1,0-0.2,0-0.4,0l-16.1,0l0,0
		c-0.4,0-0.8,0-1.1,0.1c-5.9,0.7-10.6,5.4-11.2,11.3c0,0.2,0,0.4,0,0.7l0,1.9c0.5-0.2,1.1-0.3,1.7-0.3c0.3,0,0.5,0,0.8,0.1l0-1.6
		c0-0.2,0-0.3,0-0.5c0.5-4.7,4.2-8.6,9-9.1c0.3,0,0.7-0.1,1.1-0.1l15.8,0l0.3,0c0.3,0,0.6,0,0.9,0.1c4.7,0.5,8.5,4.4,9,9.1
		c0.1,0.7,0.1,1.3,0,2l0,0.1l0,0.1c0,0.2-0.1,0.3-0.3,0.3h-7.8l0,1.2c0,0.2,0,0.5,0,0.7c-0.5,4.7-5.4,8.4-9.7,9.1L72,44l-0.3,0.5
		c-1.7,2.6-4.4,4.3-7.5,4.6c-0.7,0.1-1.3,0.1-2,0l-0.1,0l-0.1,0c-0.2,0-0.3-0.1-0.3-0.3v-5.3l-0.8-0.3c-0.5-0.2-1.1-0.5-1.6-0.8
		c-0.4,0.8-1,1.4-1.8,1.8c0.5,0.4,1,0.7,1.6,0.9v3.6c0,1.6,1.3,2.8,2.8,2.8c0.1,0,0.1,0,0.2,0c0.4,0,0.7,0,1.1,0
		c0.4,0,0.8,0,1.3-0.1c3.6-0.4,6.9-2.3,9-5.2c0.1,0,0.2-0.1,0.2-0.1c5-1.1,10.4-5.4,11.1-11h5.5c1.6,0,2.8-1.3,2.8-2.8
		c0-0.1,0-0.1,0-0.2C93,31.6,93,30.8,92.9,30z"/>
	<path id="Shape_82_1_" class="st39" d="M77,31.1c0.4,0,0.8,0.4,0.8,0.8l0,0c0,0.4-0.4,0.8-0.8,0.8l0,0c-0.4,0-0.8-0.4-0.8-0.8l0,0
		C76.2,31.5,76.6,31.1,77,31.1"/>
	<path id="Shape_83_1_" class="st39" d="M69.6,31.1c0.4,0,0.8,0.4,0.8,0.8l0,0c0,0.4-0.4,0.8-0.8,0.8l0,0c-0.4,0-0.8-0.4-0.8-0.8
		l0,0C68.8,31.5,69.1,31.1,69.6,31.1"/>
	<path id="Shape_84_1_" class="st39" d="M62.1,31.1c0.4,0,0.8,0.4,0.8,0.8l0,0c0,0.4-0.4,0.8-0.8,0.8l0,0c-0.4,0-0.8-0.4-0.8-0.8
		l0,0C61.3,31.5,61.7,31.1,62.1,31.1"/>
	<path class="st14" d="M52.9,31.5c-0.4,0-0.8,0-1.1-0.1V35c0,0.7,0.6,1.3,1.3,1.3c0.7,0,1.3-0.6,1.3-1.3v-3.7
		C53.9,31.4,53.4,31.5,52.9,31.5z"/>
	<circle class="st14" cx="58.3" cy="43.4" r="1.3"/>
</g>
<g id="Icons">
</g>
<g id="Layer_39">
</g>
<g id="Layer_40">
</g>
<g id="Layer_41">
</g>
<g id="Layer_42">
</g>
<g id="Layer_43">
</g>
<g id="Layer_44">
</g>
</svg>
