<?xml version="1.0" encoding="utf-8"?>
<!-- Generator: Adobe Illustrator 23.0.0, SVG Export Plug-In . SVG Version: 6.00 Build 0)  -->
<svg version="1.1" xmlns="http://www.w3.org/2000/svg" xmlns:xlink="http://www.w3.org/1999/xlink" x="0px" y="0px"
	 viewBox="0 0 110 110" style="enable-background:new 0 0 110 110;" xml:space="preserve">
<style type="text/css">
	.st0{display:none;}
	.st1{display:inline;fill:#602366;}
	.st2{display:inline;fill:none;stroke:#CADA2A;stroke-width:3;stroke-miterlimit:10;}
	.st3{display:inline;opacity:0.6;fill:none;stroke:#EA7F23;stroke-width:6;stroke-linecap:round;stroke-miterlimit:10;}
	.st4{display:inline;fill:none;stroke:#E97F24;stroke-width:6;stroke-linecap:round;stroke-miterlimit:10;}
	.st5{display:inline;fill:#EA7F23;}
	.st6{display:inline;}
	.st7{fill:#EA7F23;}
	.st8{display:inline;fill:none;stroke:#CADA2A;stroke-width:6;stroke-miterlimit:10;}
	.st9{display:inline;fill:none;stroke:#CADA2A;stroke-width:6;stroke-linecap:round;stroke-miterlimit:10;}
	.st10{display:inline;fill:#E97F24;}
	.st11{fill:#612960;}
	.st12{fill:#FFFFFF;}
	.st13{fill:#F58520;}
	.st14{fill:#E97F24;}
	.st15{display:inline;fill:#F58520;}
	.st16{display:inline;fill:#612960;}
	.st17{display:inline;fill:none;stroke:#E97F24;stroke-width:5;stroke-miterlimit:10;}
	.st18{display:inline;fill:#FFFFFF;}
	.st19{display:inline;fill:none;stroke:#E97F24;stroke-width:5;stroke-linecap:round;stroke-miterlimit:10;}
	.st20{fill:none;stroke:#E97F24;stroke-width:4.19;stroke-miterlimit:10;}
	.st21{display:none;fill:#E97F24;}
	.st22{fill:#424143;}
	.st23{fill:none;stroke:#000000;stroke-linecap:round;stroke-linejoin:round;stroke-miterlimit:10;}
	.st24{fill:#F0592A;}
	.st25{fill:none;stroke:#E97F24;stroke-width:3;stroke-linecap:round;stroke-miterlimit:10;}
	.st26{fill:none;stroke:#E97F24;stroke-width:2;stroke-miterlimit:10;}
	.st27{fill:none;stroke:#E87F24;stroke-width:2;stroke-linecap:round;stroke-linejoin:round;stroke-miterlimit:10;}
	.st28{fill:none;stroke:#E87F26;stroke-width:2;stroke-miterlimit:10;}
	.st29{fill-rule:evenodd;clip-rule:evenodd;fill:#E87F26;}
	.st30{fill:#E87F26;}
	.st31{fill:#231F20;}
	.st32{fill:none;stroke:#BE1E2D;stroke-miterlimit:10;}
	.st33{fill-rule:evenodd;clip-rule:evenodd;fill:#FFFFFF;}
	.st34{fill:#222221;}
	.st35{fill-rule:evenodd;clip-rule:evenodd;fill:#222221;}
	.st36{fill:#612860;stroke:#E87F24;stroke-width:2;stroke-miterlimit:10;}
	.st37{clip-path:url(#SVGID_2_);fill:#612960;}
	.st38{clip-path:url(#SVGID_2_);fill:url(#);}
	.st39{fill:none;stroke:#E87F24;stroke-width:2.7;stroke-linecap:round;stroke-linejoin:round;}
	.st40{fill:none;stroke:#E87F24;stroke-linecap:round;stroke-linejoin:round;}
	.st41{fill:none;stroke:#000000;stroke-linecap:round;stroke-miterlimit:10;}
	.st42{fill:none;stroke:#E87F26;stroke-width:2.7;stroke-linecap:round;stroke-miterlimit:10;}
	.st43{fill:none;stroke:#E87F24;stroke-width:2.87;stroke-linecap:round;stroke-linejoin:round;stroke-miterlimit:10;}
	.st44{fill:none;stroke:#E87F26;stroke-width:2;stroke-linecap:round;stroke-linejoin:round;stroke-miterlimit:10;}
</style>
<g id="Referencias" class="st0">
</g>
<g id="Layer_46">
</g>
<g id="Layer_45">
</g>
<g id="Layer_1">
</g>
<g id="Otras_propuestas" class="st0">
</g>
<g id="Otras_propuestas_1_">
</g>
<g id="Background">
</g>
<g id="Layer_4">
</g>
<g id="Layer_5">
</g>
<g id="Layer_6">
</g>
<g id="Layer_7">
</g>
<g id="Texto">
</g>
<g id="Fondos_Iconos">
</g>
<g id="Iconos">
</g>
<g id="Layer_9">
</g>
<g id="Reticula" class="st0">
</g>
<g id="Tarjeta_de_presentación">
</g>
<g id="Iconos_de_redes_sociales" class="st0">
</g>
<g id="Layer_19">
</g>
<g id="Layer_18">
</g>
<g id="Layer_17">
</g>
<g id="Layer_16">
</g>
<g id="Layer_15">
</g>
<g id="Layer_21">
</g>
<g id="Layer_20">
</g>
<g id="Layer_13">
</g>
<g id="Tarjetas_corporativas">
</g>
<g id="Firmas_corporativas">
</g>
<g id="Datos" class="st0">
</g>
<g id="Layer_23">
</g>
<g id="Layer_26">
</g>
<g id="Layer_27">
</g>
<g id="Layer_28">
</g>
<g id="Layer_29">
</g>
<g id="Layer_31">
</g>
<g id="Layer_33">
</g>
<g id="Layer_34">
</g>
<g id="Layer_35" class="st0">
</g>
<g id="Layer_36">
	<g id="Work-Office-Companies__x2F__Work_x2F_Office__x2F__office-work-wireless">
		<g id="Group_73">
			<g id="office-work-wireless">
			</g>
		</g>
	</g>
</g>
<g id="Icons">
	<polygon class="st43" points="57.5,89.7 53.1,88.4 48.8,89.7 48.8,81.6 57.5,81.6 	"/>
	<rect x="42.9" y="33.4" class="st43" width="40.9" height="48.2"/>
	<rect x="42.9" y="45.1" class="st43" width="40.9" height="11.7"/>
	<rect x="67.3" y="69" class="st43" width="16.5" height="4.7"/>
</g>
<g id="Layer_39">
</g>
<g id="Layer_40">
</g>
<g id="Layer_41">
</g>
<g id="Layer_42">
</g>
<g id="Layer_43">
	<path class="st14" d="M48.3,25.5c0.1,0.1,0.2,0.1,0.3,0.1c0.7,0.2,1.4-0.3,1.6-1l1.2-5.2c0.2-0.7-0.3-1.4-1-1.6
		c-0.7-0.2-1.4,0.3-1.6,1l-1.2,5.2C47.5,24.7,47.8,25.3,48.3,25.5z"/>
	<path class="st14" d="M32.8,31.8c0.1-0.1,0.2-0.1,0.3-0.2c0.5-0.5,0.5-1.3,0-1.8l-3.8-3.7c-0.5-0.5-1.3-0.5-1.8,0
		c-0.5,0.5-0.5,1.3,0,1.8l3.8,3.7C31.7,32,32.3,32.1,32.8,31.8z"/>
	<g>
		<path class="st14" d="M39.6,26.8c0.1,0,0.2,0,0.4,0c0.7-0.2,1.1-0.9,0.9-1.6L39.4,20c-0.2-0.7-0.9-1.1-1.6-0.9
			c-0.7,0.2-1.1,0.9-0.9,1.6l1.4,5.1C38.5,26.4,39,26.8,39.6,26.8z"/>
		<path class="st14" d="M27,39.3c0.6,0,1.1-0.4,1.2-0.9c0.2-0.7-0.2-1.4-0.9-1.6l-5.1-1.4c-0.7-0.2-1.4,0.2-1.6,0.9
			c-0.2,0.7,0.2,1.4,0.9,1.6l5.1,1.4C26.8,39.3,26.9,39.3,27,39.3z"/>
	</g>
</g>
<g id="Layer_44">
</g>
</svg>
