<?xml version="1.0" encoding="utf-8"?>
<!-- Generator: Adobe Illustrator 23.0.0, SVG Export Plug-In . SVG Version: 6.00 Build 0)  -->
<svg version="1.1" xmlns="http://www.w3.org/2000/svg" xmlns:xlink="http://www.w3.org/1999/xlink" x="0px" y="0px"
	 viewBox="0 0 110 110" style="enable-background:new 0 0 110 110;" xml:space="preserve">
<style type="text/css">
	.st0{display:none;}
	.st1{display:inline;fill:#602366;}
	.st2{display:inline;fill:none;stroke:#CADA2A;stroke-width:3;stroke-miterlimit:10;}
	.st3{display:inline;opacity:0.6;fill:none;stroke:#EA7F23;stroke-width:6;stroke-linecap:round;stroke-miterlimit:10;}
	.st4{display:inline;fill:none;stroke:#E97F24;stroke-width:6;stroke-linecap:round;stroke-miterlimit:10;}
	.st5{display:inline;fill:#EA7F23;}
	.st6{display:inline;}
	.st7{fill:#EA7F23;}
	.st8{display:inline;fill:none;stroke:#CADA2A;stroke-width:6;stroke-miterlimit:10;}
	.st9{display:inline;fill:none;stroke:#CADA2A;stroke-width:6;stroke-linecap:round;stroke-miterlimit:10;}
	.st10{display:inline;fill:#E97F24;}
	.st11{fill:#612960;}
	.st12{fill:#FFFFFF;}
	.st13{fill:#F58520;}
	.st14{fill:#E97F24;}
	.st15{display:inline;fill:#F58520;}
	.st16{display:inline;fill:#612960;}
	.st17{display:inline;fill:none;stroke:#E97F24;stroke-width:5;stroke-miterlimit:10;}
	.st18{display:inline;fill:#FFFFFF;}
	.st19{display:inline;fill:none;stroke:#E97F24;stroke-width:5;stroke-linecap:round;stroke-miterlimit:10;}
	.st20{fill:none;stroke:#E97F24;stroke-width:4.19;stroke-miterlimit:10;}
	.st21{display:none;fill:#E97F24;}
	.st22{fill:#424143;}
	.st23{fill:none;stroke:#000000;stroke-linecap:round;stroke-linejoin:round;stroke-miterlimit:10;}
	.st24{fill:#F0592A;}
	.st25{fill:none;stroke:#E97F24;stroke-width:3;stroke-linecap:round;stroke-miterlimit:10;}
	.st26{fill:none;stroke:#E97F24;stroke-width:2;stroke-miterlimit:10;}
	.st27{fill:none;stroke:#E87F24;stroke-width:2;stroke-linecap:round;stroke-linejoin:round;stroke-miterlimit:10;}
	.st28{fill:none;stroke:#E87F26;stroke-width:2;stroke-miterlimit:10;}
	.st29{fill-rule:evenodd;clip-rule:evenodd;fill:#E87F26;}
	.st30{fill:#E87F26;}
	.st31{fill:#231F20;}
	.st32{fill:none;stroke:#BE1E2D;stroke-miterlimit:10;}
	.st33{fill-rule:evenodd;clip-rule:evenodd;fill:#FFFFFF;}
	.st34{fill:#222221;}
	.st35{fill-rule:evenodd;clip-rule:evenodd;fill:#222221;}
	.st36{fill:#612860;stroke:#E87F24;stroke-width:2;stroke-miterlimit:10;}
	.st37{clip-path:url(#SVGID_2_);fill:#612960;}
	.st38{clip-path:url(#SVGID_2_);fill:url(#);}
	.st39{fill:none;stroke:#E87F24;stroke-width:2.7;stroke-linecap:round;stroke-linejoin:round;}
	.st40{fill:none;stroke:#E87F24;stroke-linecap:round;stroke-linejoin:round;}
	.st41{fill:none;stroke:#000000;stroke-linecap:round;stroke-miterlimit:10;}
	.st42{fill:none;stroke:#E87F26;stroke-width:2.7;stroke-linecap:round;stroke-miterlimit:10;}
	.st43{fill:none;stroke:#E87F24;stroke-width:2.87;stroke-linecap:round;stroke-linejoin:round;stroke-miterlimit:10;}
	.st44{fill:none;stroke:#E87F26;stroke-width:2;stroke-linecap:round;stroke-linejoin:round;stroke-miterlimit:10;}
</style>
<g id="Referencias" class="st0">
</g>
<g id="Layer_46">
</g>
<g id="Layer_45">
</g>
<g id="Layer_1">
</g>
<g id="Otras_propuestas" class="st0">
</g>
<g id="Otras_propuestas_1_">
</g>
<g id="Background">
</g>
<g id="Layer_4">
</g>
<g id="Layer_5">
</g>
<g id="Layer_6">
</g>
<g id="Layer_7">
</g>
<g id="Texto">
</g>
<g id="Fondos_Iconos">
</g>
<g id="Iconos">
</g>
<g id="Layer_9">
</g>
<g id="Reticula" class="st0">
</g>
<g id="Tarjeta_de_presentación">
</g>
<g id="Iconos_de_redes_sociales" class="st0">
</g>
<g id="Layer_19">
</g>
<g id="Layer_18">
</g>
<g id="Layer_17">
</g>
<g id="Layer_16">
</g>
<g id="Layer_15">
</g>
<g id="Layer_21">
</g>
<g id="Layer_20">
</g>
<g id="Layer_13">
</g>
<g id="Tarjetas_corporativas">
</g>
<g id="Firmas_corporativas">
</g>
<g id="Datos" class="st0">
</g>
<g id="Layer_23">
</g>
<g id="Layer_26">
</g>
<g id="Layer_27">
</g>
<g id="Layer_28">
</g>
<g id="Layer_29">
</g>
<g id="Layer_31">
</g>
<g id="Layer_33">
</g>
<g id="Layer_34">
</g>
<g id="Layer_35" class="st0">
</g>
<g id="Layer_36">
	<g id="Work-Office-Companies__x2F__Work_x2F_Office__x2F__office-work-wireless">
		<g id="Group_73">
			<g id="office-work-wireless">
			</g>
		</g>
	</g>
</g>
<g id="Icons">
	<path class="st14" d="M85.3,60.6c-0.7,0-1.2-0.1-1.8-0.3v25.5H31.8V22.9h51.8v9c0.6-0.3,1.4-0.5,2.2-0.5c0.2,0,0.3,0,0.5,0v-9.9
		c0-0.7-0.6-1.3-1.3-1.3H30.4c-0.7,0-1.3,0.6-1.3,1.3v65.6c0,0.7,0.6,1.3,1.3,1.3h54.5c0.7,0,1.3-0.6,1.3-1.3V60.6
		C86,60.6,85.6,60.6,85.3,60.6z"/>
</g>
<g id="Layer_39">
	<path class="st14" d="M73.8,38.1H42.5c-0.7,0-1.4-0.6-1.4-1.4c0-0.7,0.6-1.4,1.4-1.4h31.4c0.7,0,1.4,0.6,1.4,1.4
		C75.2,37.5,74.6,38.1,73.8,38.1z"/>
	<path class="st14" d="M70.4,45.3h-28c-0.7,0-1.4-0.6-1.4-1.4c0-0.7,0.6-1.4,1.4-1.4h28c0.8,0,1.4,0.6,1.4,1.4
		C71.8,44.7,71.2,45.3,70.4,45.3z"/>
	<path class="st14" d="M61.6,52.6H42.5c-0.7,0-1.4-0.6-1.4-1.4c0-0.7,0.6-1.4,1.4-1.4h19.2c0.8,0,1.4,0.6,1.4,1.4
		C63,51.9,62.4,52.6,61.6,52.6z"/>
	<path class="st14" d="M56.9,59.8H42.5c-0.7,0-1.4-0.6-1.4-1.4c0-0.8,0.6-1.4,1.4-1.4h14.4c0.7,0,1.4,0.6,1.4,1.4
		C58.2,59.1,57.6,59.8,56.9,59.8z"/>
	<path class="st14" d="M49.4,67h-7c-0.7,0-1.4-0.6-1.4-1.4s0.6-1.4,1.4-1.4h7c0.7,0,1.4,0.6,1.4,1.4S50.2,67,49.4,67z"/>
</g>
<g id="Layer_40">
	<g>
		<path class="st44" d="M70.7,65.2l-5.6-5.6l20.3-20.3c1.5-1.5,4-1.5,5.6,0c1.5,1.5,1.5,4,0,5.6L70.7,65.2z"/>
		<polygon class="st44" points="65.1,59.6 61.8,68.5 70.7,65.2 		"/>
	</g>
</g>
<g id="Layer_41">
</g>
<g id="Layer_42">
	<path class="st14" d="M84.6,31.2c-0.4,0-0.7,0-1.1-0.1v1.5c0,0.7,0.6,1.4,1.4,1.4c0.7,0,1.4-0.6,1.4-1.4V31c0,0,0,0,0-0.1
		C85.8,31.1,85.2,31.2,84.6,31.2z"/>
	<path class="st14" d="M85.2,61.7c0.4,0,0.7,0,1.1,0.1v-1.5c0-0.7-0.6-1.4-1.4-1.4c-0.7,0-1.4,0.6-1.4,1.4v1.6c0,0,0,0,0,0.1
		C84,61.8,84.6,61.7,85.2,61.7z"/>
</g>
<g id="Layer_43">
</g>
<g id="Layer_44">
</g>
</svg>
