<?xml version="1.0" encoding="utf-8"?>
<!-- Generator: Adobe Illustrator 23.0.0, SVG Export Plug-In . SVG Version: 6.00 Build 0)  -->
<svg version="1.1" xmlns="http://www.w3.org/2000/svg" xmlns:xlink="http://www.w3.org/1999/xlink" x="0px" y="0px"
	 viewBox="0 0 192 192" style="enable-background:new 0 0 192 192;" xml:space="preserve">
<style type="text/css">
	.st0{fill:#F6F6F6;}
	.st1{fill:#612960;}
	.st2{fill:#E97F24;}
	.st3{fill:none;stroke:#E87F24;stroke-width:4;stroke-linecap:round;stroke-linejoin:round;stroke-miterlimit:10;}
	.st4{fill:#612860;stroke:#E87F24;stroke-width:4;stroke-miterlimit:10;}
	.st5{fill:#F48320;}
	.st6{clip-path:url(#SVGID_6_);fill:#612960;}
	.st7{fill:none;stroke:#000000;stroke-width:2;stroke-miterlimit:10;}
	.st8{fill:#FFFFFF;}
	.st9{fill:#F58520;}
	.st10{clip-path:url(#SVGID_16_);fill:#612960;}
	.st11{clip-path:url(#SVGID_34_);fill:#612960;}
</style>
<g id="Layer_1">
</g>
<g id="Menu">
</g>
<g id="Layer_3">
</g>
<g id="Layer_4">
</g>
<g id="Layer_5">
</g>
<g id="Layer_7">
</g>
<g id="Divisores">
</g>
<g id="Menu_1_">
</g>
<g id="Layer_9">
</g>
<g id="Layer_10">
</g>
<g id="Layer_11">
</g>
<g id="Iconos_de_servicios">
	<g>
		<g>
			<circle class="st1" cx="96" cy="96" r="94.1"/>
		</g>
		<g>
			<g>
				<path class="st2" d="M100.7,56.4c0.1,0,0.3,0,0.4-0.1c0.2,0,0.3,0,0.4,0c0.1,0,0.3,0,0.4,0c0.2,0,0.3,0,0.4,0.1v5.2
					c0.1-0.2,0.2-0.3,0.4-0.5c0.2-0.2,0.3-0.4,0.6-0.5c0.2-0.2,0.5-0.3,0.8-0.4c0.3-0.1,0.6-0.1,1-0.1c1,0,1.8,0.3,2.3,0.9
					c0.5,0.6,0.7,1.5,0.7,2.6v5.7c-0.1,0-0.3,0-0.4,0.1c-0.2,0-0.3,0-0.4,0c-0.1,0-0.3,0-0.4,0c-0.2,0-0.3,0-0.4-0.1V64
					c0-0.8-0.1-1.4-0.4-1.8c-0.3-0.4-0.7-0.6-1.2-0.6c-0.3,0-0.6,0.1-0.9,0.2c-0.3,0.1-0.5,0.3-0.8,0.5c-0.2,0.2-0.4,0.5-0.5,0.9
					c-0.1,0.4-0.2,0.8-0.2,1.4v4.6c-0.1,0-0.3,0-0.4,0.1c-0.2,0-0.3,0-0.4,0c-0.1,0-0.3,0-0.4,0c-0.2,0-0.3,0-0.4-0.1V56.4z"/>
				<path class="st2" d="M113.9,69.4c-0.7,0-1.3-0.1-1.8-0.4c-0.5-0.2-1-0.6-1.3-1c-0.3-0.4-0.6-0.9-0.8-1.5
					c-0.2-0.6-0.3-1.2-0.3-1.8s0.1-1.3,0.3-1.8c0.2-0.6,0.4-1.1,0.8-1.5c0.3-0.4,0.8-0.7,1.3-1c0.5-0.2,1.1-0.4,1.8-0.4
					s1.3,0.1,1.8,0.4c0.5,0.2,1,0.6,1.3,1c0.3,0.4,0.6,0.9,0.8,1.5c0.2,0.6,0.3,1.2,0.3,1.8s-0.1,1.3-0.3,1.8
					c-0.2,0.6-0.4,1.1-0.8,1.5c-0.3,0.4-0.8,0.7-1.3,1C115.2,69.2,114.6,69.4,113.9,69.4z M113.9,68c0.8,0,1.4-0.3,1.8-0.9
					c0.4-0.6,0.6-1.4,0.6-2.4c0-1-0.2-1.8-0.6-2.4c-0.4-0.6-1-0.9-1.8-0.9c-0.8,0-1.4,0.3-1.8,0.9c-0.4,0.6-0.6,1.4-0.6,2.4
					c0,1,0.2,1.8,0.6,2.4C112.6,67.7,113.1,68,113.9,68z"/>
				<path class="st2" d="M119.9,56.4c0.1,0,0.3,0,0.4-0.1c0.2,0,0.3,0,0.4,0c0.1,0,0.3,0,0.4,0c0.2,0,0.3,0,0.4,0.1v10.1
					c0,0.3,0,0.6,0.1,0.8c0.1,0.2,0.1,0.3,0.2,0.4c0.1,0.1,0.2,0.2,0.3,0.2c0.1,0,0.3,0,0.4,0c0.1,0,0.2,0,0.4,0
					c0.1,0,0.2,0,0.3-0.1c0.1,0.4,0.2,0.8,0.2,1.3c-0.2,0.1-0.4,0.1-0.6,0.1c-0.2,0-0.4,0-0.6,0c-0.3,0-0.6,0-0.9-0.1
					s-0.5-0.2-0.8-0.4c-0.2-0.2-0.4-0.4-0.5-0.7c-0.1-0.3-0.2-0.7-0.2-1.2V56.4z"/>
				<path class="st2" d="M129.4,63.3c0-0.7-0.2-1.2-0.5-1.4c-0.3-0.3-0.9-0.4-1.5-0.4c-0.4,0-0.8,0-1.1,0.1c-0.4,0.1-0.7,0.1-1,0.3
					c-0.2-0.4-0.3-0.8-0.3-1.4c0.4-0.1,0.8-0.2,1.3-0.3c0.5-0.1,0.9-0.1,1.4-0.1c1.2,0,2,0.3,2.6,0.8c0.6,0.5,0.9,1.4,0.9,2.5v5.6
					c-0.4,0.1-0.9,0.2-1.5,0.3c-0.6,0.1-1.2,0.1-1.8,0.1c-0.6,0-1.1-0.1-1.5-0.2c-0.5-0.1-0.8-0.3-1.2-0.5c-0.3-0.2-0.6-0.5-0.7-0.9
					c-0.2-0.4-0.3-0.8-0.3-1.3c0-0.5,0.1-0.9,0.3-1.3c0.2-0.4,0.5-0.7,0.8-0.9c0.3-0.2,0.7-0.4,1.2-0.6s0.9-0.2,1.4-0.2
					c0.4,0,0.7,0,0.9,0c0.2,0,0.4,0,0.6,0.1V63.3z M129.4,64.9c-0.2,0-0.4,0-0.7-0.1c-0.3,0-0.5,0-0.7,0c-0.7,0-1.3,0.1-1.6,0.4
					c-0.4,0.3-0.6,0.7-0.6,1.2c0,0.3,0.1,0.6,0.2,0.8c0.1,0.2,0.3,0.3,0.5,0.5c0.2,0.1,0.4,0.2,0.6,0.2c0.2,0,0.5,0,0.7,0
					c0.3,0,0.5,0,0.8,0c0.3,0,0.5-0.1,0.8-0.1V64.9z"/>
			</g>
			<path class="st2" d="M78.9,107.7h-0.5c-2.5,0-7.2-1-10.6-7.5c-1.6-3-2.4-6.6-2.4-10.2v-0.3c0-3.5,1.9-6.8,5-8.5
				c1.8-1,4.8-2.2,8.3-2.2c3.7,0,7,1.6,9,2.9c2.8,1.8,4.4,4.8,4.4,8.2c0,3.7-0.9,7.3-2.5,10.3C86.4,106.4,82,107.7,78.9,107.7z
				 M78.7,82.9c-2.7,0-5,0.9-6.4,1.7c-1.8,1-3,2.9-3,5.1V90c0,3.1,0.7,6,2,8.4c2.3,4.4,5.2,5.4,7.1,5.4h0.5c2.9,0,5.3-1.8,7.2-5.3
				c1.3-2.5,2-5.4,2-8.5c0-2-1-3.8-2.6-4.8C83.9,84.1,81.5,82.9,78.7,82.9z"/>
			<path class="st2" d="M78.6,156.4c-9.7,0-19.1-2.7-27.1-7.9c-1.2-0.8-2-2.1-2-3.6v-19.2c0-8,7-14.5,15.7-14.5H92
				c8.7,0,15.7,6.5,15.7,14.5v19.2c0,1.4-0.7,2.8-2,3.6C97.7,153.7,88.4,156.4,78.6,156.4z M65.3,115.1c-6.5,0-11.8,4.7-11.8,10.6
				v19.2c0,0.1,0.1,0.2,0.2,0.3c7.3,4.8,15.9,7.3,24.9,7.3s17.6-2.5,24.9-7.3c0.1-0.1,0.2-0.2,0.2-0.3v-19.2
				c0-5.8-5.3-10.6-11.7-10.6H65.3z"/>
			<path class="st2" d="M63.7,151.2c1.4,0,2.6,0.3,3.6,0.8v-24.3c0-1.1-0.9-2-2-2c-1.1,0-2,0.9-2,2v23.5
				C63.4,151.2,63.5,151.2,63.7,151.2z"/>
			<path class="st2" d="M90.6,151.2c1.4,0,2.6,0.3,3.6,0.8v-24.3c0-1.1-0.9-2-2-2c-1.1,0-2,0.9-2,2v23.5
				C90.3,151.2,90.4,151.2,90.6,151.2z"/>
			<path class="st2" d="M105.2,94c-0.6,0-1.2,0-1.8-0.1c-0.1,0-0.2,0-0.2,0c-2.5,0-4.5-2-4.5-4.5v-5.8c-6.3-3-10.5-9.1-11.2-16
				c-0.1-0.8-0.1-1.6-0.1-2.5l0-4.5c0-0.4,0-0.7,0.1-1c0.9-9.3,8.3-16.9,17.7-17.9c0.5-0.1,1.1-0.1,1.7-0.1l0,0l25.5,0
				c0.2,0,0.4,0,0.6,0l0,0c0.6,0,1.2,0,1.7,0.1c9.3,1.1,16.7,8.6,17.7,17.9c0.1,1.2,0.1,2.5,0,3.8c0,0.1,0,0.2,0,0.2
				c0,2.5-2,4.5-4.5,4.5h-8.6c-1.1,8.8-9.7,15.6-17.6,17.3c0,0-0.2,0.1-0.3,0.2c-3.4,4.7-8.5,7.7-14.3,8.3
				C106.5,94,105.9,94,105.2,94z M103.4,90l0.2,0c1.1,0.1,2.2,0.1,3.2,0c4.9-0.5,9.2-3.1,11.9-7.3l0.5-0.9l0.9,0
				c6.8-1.2,14.6-7,15.3-14.5c0-0.4,0.1-0.8,0.1-1.2l0.1-1.9H148c0.3,0,0.5-0.2,0.5-0.5l0-0.2l0-0.2c0.1-1.1,0.1-2.2,0-3.2
				c-0.7-7.5-6.7-13.5-14.2-14.4c-0.5-0.1-0.9-0.1-1.4-0.1l-0.5,0l-25,0c-0.7,0-1.3,0-1.8,0.1c-7.5,0.9-13.4,6.9-14.2,14.4
				c0,0.3,0,0.5-0.1,0.8l0,4.4c0,0.7,0,1.4,0.1,2c0.6,5.9,4.5,11.1,10,13.3l1.2,0.5v8.4c0,0.3,0.2,0.5,0.5,0.5L103.4,90z"/>
		</g>
	</g>
</g>
</svg>
