<?xml version="1.0" encoding="utf-8"?>
<!-- Generator: Adobe Illustrator 23.0.0, SVG Export Plug-In . SVG Version: 6.00 Build 0)  -->
<svg version="1.1" xmlns="http://www.w3.org/2000/svg" xmlns:xlink="http://www.w3.org/1999/xlink" x="0px" y="0px"
	 viewBox="0 0 192 192" style="enable-background:new 0 0 192 192;" xml:space="preserve">
<style type="text/css">
	.st0{display:none;fill:#612960;}
	.st1{fill:#00FF00;}
	.st2{fill:#612960;}
	.st3{fill:none;stroke:#222221;stroke-width:1.5;stroke-miterlimit:10;}
	.st4{fill:#222221;}
	.st5{fill:#FFFFFF;}
	.st6{fill:#E97F24;}
	.st7{fill:#F48320;}
	.st8{clip-path:url(#SVGID_8_);fill:#612960;}
	.st9{fill:none;stroke:#000000;stroke-width:2;stroke-miterlimit:10;}
	.st10{fill:#F58520;}
	.st11{fill:none;stroke:#E87F24;stroke-width:4;stroke-linecap:round;stroke-linejoin:round;stroke-miterlimit:10;}
	.st12{fill:#612860;stroke:#E87F24;stroke-width:4;stroke-miterlimit:10;}
	.st13{fill:none;stroke:#FFFFFF;stroke-width:2;stroke-miterlimit:10;}
	.st14{fill:#E97F24;stroke:#FFFFFF;stroke-width:2;stroke-miterlimit:10;}
	.st15{fill:#F6F6F6;}
	.st16{fill:#E97F24;stroke:#E97F24;stroke-width:0.75;stroke-miterlimit:10;}
	.st17{fill:none;stroke:#E97F24;stroke-width:3.5;stroke-miterlimit:10;}
	.st18{fill:none;stroke:#E87F26;stroke-width:4;stroke-linecap:round;stroke-miterlimit:10;}
	.st19{fill:#E87F26;}
	.st20{fill:#E97F24;stroke:#E87F26;stroke-width:0.5;stroke-miterlimit:10;}
	.st21{fill:none;stroke:#E87F24;stroke-width:2.7;stroke-linecap:round;stroke-linejoin:round;}
	.st22{fill:none;stroke:#E87F26;stroke-width:2;stroke-linecap:round;stroke-linejoin:round;stroke-miterlimit:10;}
	.st23{fill:none;stroke:#E87F24;stroke-width:2.87;stroke-linecap:round;stroke-linejoin:round;stroke-miterlimit:10;}
	.st24{fill:#E87F24;}
	.st25{fill:none;stroke:#E87F26;stroke-width:2.5;stroke-linecap:round;stroke-linejoin:round;stroke-miterlimit:10;}
	.st26{fill:#00FFFF;}
	.st27{display:none;}
	.st28{display:inline;}
	.st29{display:inline;fill:#00FF00;}
	.st30{display:inline;fill:#E97F24;}
	.st31{fill:none;stroke:#E97F24;stroke-width:2;stroke-linecap:round;stroke-linejoin:round;stroke-miterlimit:10;}
</style>
<g id="Layer_1">
</g>
<g id="Menu">
</g>
<g id="Layer_3">
</g>
<g id="Layer_4">
</g>
<g id="Layer_5">
</g>
<g id="Layer_7">
</g>
<g id="Divisores">
</g>
<g id="Menu_1_">
</g>
<g id="Layer_17">
</g>
<g id="Layer_9">
	<g>
		<polygon class="st23" points="107,151.6 99.1,149.3 91.2,151.6 91.2,137.1 107,137.1 		"/>
		<rect x="80.6" y="50.3" class="st23" width="73.7" height="86.8"/>
		<rect x="80.6" y="71.3" class="st23" width="73.7" height="21"/>
		<rect x="124.6" y="114.3" class="st23" width="29.7" height="8.5"/>
		<path class="st6" d="M90.3,36.1c0.2,0.1,0.4,0.2,0.6,0.2c1.3,0.3,2.5-0.5,2.8-1.7l2.2-9.3c0.3-1.3-0.5-2.5-1.7-2.8
			c-1.3-0.3-2.5,0.5-2.8,1.7l-2.2,9.3C88.9,34.6,89.4,35.6,90.3,36.1z"/>
		<path class="st6" d="M62.5,47.4c0.2-0.1,0.3-0.2,0.5-0.4c0.9-0.9,0.9-2.4-0.1-3.3L56.1,37c-0.9-0.9-2.4-0.9-3.3,0.1
			c-0.9,0.9-0.9,2.4,0.1,3.3l6.8,6.6C60.5,47.8,61.6,47.9,62.5,47.4z"/>
		<g>
			<path class="st6" d="M74.7,38.3c0.2,0,0.4,0,0.6-0.1c1.2-0.3,2-1.6,1.6-2.9l-2.6-9.2c-0.3-1.2-1.6-2-2.9-1.6
				c-1.2,0.3-2,1.6-1.6,2.9l2.6,9.2C72.7,37.6,73.6,38.3,74.7,38.3z"/>
			<path class="st6" d="M52.1,60.9c1,0,2-0.7,2.2-1.7c0.3-1.2-0.4-2.5-1.6-2.9l-9.2-2.6c-1.2-0.3-2.5,0.4-2.9,1.6s0.4,2.5,1.6,2.9
				l9.2,2.6C51.7,60.9,51.9,60.9,52.1,60.9z"/>
		</g>
	</g>
	<g>
		<circle class="st2" cx="49.6" cy="147.3" r="20.9"/>
	</g>
	<g>
		<path class="st24" d="M47.2,148.4l3.2-6h-5.3c-0.1-0.5-0.1-1-0.1-1.5c0-0.5,0-1,0.1-1.5h10l0.2,0.4l-3.9,6.6h0.1
			c0.6,0,1.2,0.1,1.7,0.4s0.9,0.6,1.3,1c0.3,0.4,0.6,0.9,0.8,1.4c0.2,0.5,0.3,1.1,0.3,1.6c0,1.1-0.2,2-0.5,2.8
			c-0.4,0.8-0.8,1.5-1.5,2s-1.4,0.9-2.2,1.2c-0.8,0.3-1.8,0.4-2.8,0.4c-0.5,0-0.9,0-1.3,0c-0.4,0-0.7-0.1-1.1-0.1
			c-0.3-0.1-0.7-0.2-1-0.3c-0.4-0.1-0.7-0.2-1.2-0.4c0-0.5,0.1-1,0.3-1.5s0.3-1,0.6-1.4c0.6,0.2,1.2,0.4,1.7,0.5
			c0.5,0.1,1.2,0.2,1.9,0.2c0.5,0,1-0.1,1.5-0.2s0.9-0.3,1.2-0.6c0.3-0.3,0.6-0.6,0.8-1c0.2-0.4,0.3-0.9,0.3-1.4
			c0-0.4-0.1-0.8-0.3-1.1c-0.2-0.3-0.4-0.6-0.7-0.8s-0.6-0.3-1-0.4c-0.4-0.1-0.8-0.1-1.2-0.1c-0.3,0-0.6,0-0.8,0
			c-0.3,0-0.6,0.1-0.8,0.1L47.2,148.4z"/>
	</g>
</g>
<g id="Layer_10">
</g>
<g id="Layer_11">
</g>
<g id="Iconos_de_servicios">
</g>
<g id="Ref" class="st27">
</g>
<g id="Layer_14">
</g>
<g id="elementos_ocultos" class="st27">
</g>
<g id="Layer_16">
</g>
<g id="Layer_18">
</g>
<g id="Contact">
</g>
</svg>
