<?xml version="1.0" encoding="utf-8"?>
<!-- Generator: Adobe Illustrator 23.0.0, SVG Export Plug-In . SVG Version: 6.00 Build 0)  -->
<svg version="1.1" xmlns="http://www.w3.org/2000/svg" xmlns:xlink="http://www.w3.org/1999/xlink" x="0px" y="0px"
	 viewBox="0 0 192 192" style="enable-background:new 0 0 192 192;" xml:space="preserve">
<style type="text/css">
	.st0{display:none;fill:#612960;}
	.st1{fill:#00FF00;}
	.st2{fill:#612960;}
	.st3{fill:none;stroke:#222221;stroke-width:1.5;stroke-miterlimit:10;}
	.st4{fill:#222221;}
	.st5{fill:#FFFFFF;}
	.st6{fill:#E97F24;}
	.st7{fill:#F48320;}
	.st8{clip-path:url(#SVGID_8_);fill:#612960;}
	.st9{fill:none;stroke:#000000;stroke-width:2;stroke-miterlimit:10;}
	.st10{fill:#F58520;}
	.st11{fill:none;stroke:#E87F24;stroke-width:4;stroke-linecap:round;stroke-linejoin:round;stroke-miterlimit:10;}
	.st12{fill:#612860;stroke:#E87F24;stroke-width:4;stroke-miterlimit:10;}
	.st13{fill:none;stroke:#FFFFFF;stroke-width:2;stroke-miterlimit:10;}
	.st14{fill:#E97F24;stroke:#FFFFFF;stroke-width:2;stroke-miterlimit:10;}
	.st15{fill:#F6F6F6;}
	.st16{fill:#E97F24;stroke:#E97F24;stroke-width:0.75;stroke-miterlimit:10;}
	.st17{fill:none;stroke:#E97F24;stroke-width:3.5;stroke-miterlimit:10;}
	.st18{fill:none;stroke:#E87F26;stroke-width:4;stroke-linecap:round;stroke-miterlimit:10;}
	.st19{fill:#E87F26;}
	.st20{fill:#E97F24;stroke:#E87F26;stroke-width:0.5;stroke-miterlimit:10;}
	.st21{fill:none;stroke:#E87F24;stroke-width:2.7;stroke-linecap:round;stroke-linejoin:round;}
	.st22{fill:none;stroke:#E87F26;stroke-width:2;stroke-linecap:round;stroke-linejoin:round;stroke-miterlimit:10;}
	.st23{fill:none;stroke:#E87F24;stroke-width:2.87;stroke-linecap:round;stroke-linejoin:round;stroke-miterlimit:10;}
	.st24{fill:#E87F24;}
	.st25{fill:none;stroke:#E87F26;stroke-width:2.5;stroke-linecap:round;stroke-linejoin:round;stroke-miterlimit:10;}
	.st26{fill:#00FFFF;}
	.st27{display:none;}
	.st28{display:inline;}
	.st29{display:inline;fill:#00FF00;}
	.st30{display:inline;fill:#E97F24;}
	.st31{fill:none;stroke:#E97F24;stroke-width:2;stroke-linecap:round;stroke-linejoin:round;stroke-miterlimit:10;}
</style>
<g id="Layer_1">
</g>
<g id="Menu">
</g>
<g id="Layer_3">
</g>
<g id="Layer_4">
</g>
<g id="Layer_5">
</g>
<g id="Layer_7">
</g>
<g id="Divisores">
</g>
<g id="Menu_1_">
</g>
<g id="Layer_17">
</g>
<g id="Layer_9">
	<g>
		<path class="st21" d="M93.6,45.2C70.1,48.2,50,68,50,92.1c0,15.7,7.6,29.5,19.4,38.1v21.3"/>
		<path class="st21" d="M117.8,151.4v-9.7h9.7c8,0,14.5-6.5,14.5-14.5v-14.5h11.2c1.6,0,2.8-1.6,2.3-3.2
			c-9.3-28.7-15.9-59.5-47.4-64.1"/>
		<path class="st21" d="M94.6,83.6h12.5c0.6,0,1-0.4,1-1V41c0-0.6-0.4-1-1-1H94.6c-0.6,0-1,0.4-1,1v41.6
			C93.6,83.1,94.1,83.6,94.6,83.6z"/>
		<circle class="st21" cx="100.9" cy="100.5" r="7.3"/>
		<path class="st21" d="M93.8,79.9c-8.5,3-14.7,11.1-14.7,20.6c0,12,9.8,21.8,21.8,21.8c12,0,21.8-9.8,21.8-21.8
			c0-9.5-6.1-17.7-14.7-20.6"/>
	</g>
	<g>
		<circle class="st2" cx="37.3" cy="148.1" r="20.9"/>
	</g>
	<g>
		<path class="st24" d="M37.2,153.4v-8.7l-3,1.2c-0.3-0.4-0.6-0.8-0.8-1.3c-0.2-0.4-0.4-0.9-0.5-1.4l6.9-3.1h0.6v13.2h3.4
			c0,0.3,0.1,0.5,0.1,0.8c0,0.2,0,0.5,0,0.7c0,0.3,0,0.5,0,0.7c0,0.2,0,0.5-0.1,0.8H33.7c0-0.3-0.1-0.5-0.1-0.8c0-0.2,0-0.5,0-0.7
			c0-0.2,0-0.5,0-0.7c0-0.2,0-0.5,0.1-0.8H37.2z"/>
	</g>
</g>
<g id="Layer_10">
</g>
<g id="Layer_11">
</g>
<g id="Iconos_de_servicios">
</g>
<g id="Ref" class="st27">
</g>
<g id="Layer_14">
</g>
<g id="elementos_ocultos" class="st27">
</g>
<g id="Layer_16">
</g>
<g id="Layer_18">
</g>
<g id="Contact">
</g>
</svg>
