<?xml version="1.0" encoding="utf-8"?>
<!-- Generator: Adobe Illustrator 23.0.0, SVG Export Plug-In . SVG Version: 6.00 Build 0)  -->
<svg version="1.1" xmlns="http://www.w3.org/2000/svg" xmlns:xlink="http://www.w3.org/1999/xlink" x="0px" y="0px"
	 viewBox="0 0 192 192" style="enable-background:new 0 0 192 192;" xml:space="preserve">
<style type="text/css">
	.st0{display:none;fill:#612960;}
	.st1{fill:#00FF00;}
	.st2{fill:#612960;}
	.st3{fill:none;stroke:#222221;stroke-width:1.5;stroke-miterlimit:10;}
	.st4{fill:#222221;}
	.st5{fill:#FFFFFF;}
	.st6{fill:#E97F24;}
	.st7{fill:#F48320;}
	.st8{clip-path:url(#SVGID_8_);fill:#612960;}
	.st9{fill:none;stroke:#000000;stroke-width:2;stroke-miterlimit:10;}
	.st10{fill:#F58520;}
	.st11{fill:none;stroke:#E87F24;stroke-width:4;stroke-linecap:round;stroke-linejoin:round;stroke-miterlimit:10;}
	.st12{fill:#612860;stroke:#E87F24;stroke-width:4;stroke-miterlimit:10;}
	.st13{fill:none;stroke:#FFFFFF;stroke-width:2;stroke-miterlimit:10;}
	.st14{fill:#E97F24;stroke:#FFFFFF;stroke-width:2;stroke-miterlimit:10;}
	.st15{fill:#F6F6F6;}
	.st16{fill:#E97F24;stroke:#E97F24;stroke-width:0.75;stroke-miterlimit:10;}
	.st17{fill:none;stroke:#E97F24;stroke-width:3.5;stroke-miterlimit:10;}
	.st18{fill:none;stroke:#E87F26;stroke-width:4;stroke-linecap:round;stroke-miterlimit:10;}
	.st19{fill:#E87F26;}
	.st20{fill:#E97F24;stroke:#E87F26;stroke-width:0.5;stroke-miterlimit:10;}
	.st21{fill:none;stroke:#E87F24;stroke-width:2.7;stroke-linecap:round;stroke-linejoin:round;}
	.st22{fill:none;stroke:#E87F26;stroke-width:2;stroke-linecap:round;stroke-linejoin:round;stroke-miterlimit:10;}
	.st23{fill:none;stroke:#E87F24;stroke-width:2.87;stroke-linecap:round;stroke-linejoin:round;stroke-miterlimit:10;}
	.st24{fill:#E87F24;}
	.st25{fill:none;stroke:#E87F26;stroke-width:2.5;stroke-linecap:round;stroke-linejoin:round;stroke-miterlimit:10;}
	.st26{font-family:'Aller-Bold';}
	.st27{font-size:24.8006px;}
	.st28{fill:#00FFFF;}
	.st29{display:none;}
	.st30{display:inline;}
	.st31{display:inline;fill:#00FF00;}
	.st32{display:inline;fill:#E97F24;}
	.st33{fill:none;stroke:#E97F24;stroke-width:2;stroke-linecap:round;stroke-linejoin:round;stroke-miterlimit:10;}
</style>
<g id="Layer_1">
</g>
<g id="Menu">
</g>
<g id="Layer_3">
</g>
<g id="Layer_4">
</g>
<g id="Layer_5">
</g>
<g id="Layer_7">
</g>
<g id="Divisores">
</g>
<g id="Menu_1_">
</g>
<g id="Layer_17">
</g>
<g id="Layer_9">
	<g>
		<path class="st6" d="M95.3,97.4h-0.4c-2.1,0-6-0.8-8.9-6.3c-1.3-2.5-2-5.5-2-8.6v-0.3c0-3,1.6-5.7,4.2-7.1c1.5-0.9,4-1.9,7-1.9
			c3.1,0,5.8,1.3,7.6,2.4c2.3,1.5,3.7,4.1,3.7,6.9c0,3.1-0.7,6.1-2.1,8.7C101.6,96.3,97.9,97.4,95.3,97.4z M95.1,76.6
			c-2.3,0-4.2,0.8-5.4,1.5c-1.5,0.8-2.5,2.5-2.5,4.2v0.3c0,2.6,0.6,5,1.7,7c2,3.7,4.3,4.5,6,4.5h0.4c2.4,0,4.5-1.5,6.1-4.4
			c1.1-2.1,1.7-4.5,1.7-7.1c0-1.7-0.8-3.2-2.2-4.1C99.5,77.6,97.5,76.6,95.1,76.6z"/>
		<path class="st6" d="M95.1,139.4c-8.2,0-16-2.3-22.7-6.7c-1-0.7-1.7-1.8-1.7-3v-16.1c0-6.7,5.9-12.2,13.2-12.2h22.4
			c7.3,0,13.2,5.5,13.2,12.2v16.1c0,1.2-0.6,2.3-1.7,3C111.1,137.1,103.3,139.4,95.1,139.4z M83.9,104.7c-5.4,0-9.9,4-9.9,8.9v16.1
			c0,0.1,0.1,0.2,0.2,0.2c6.1,4,13.4,6.1,20.9,6.1c7.5,0,14.8-2.1,20.9-6.1c0.1-0.1,0.2-0.1,0.2-0.2v-16.1c0-4.9-4.4-8.9-9.9-8.9
			H83.9z"/>
		<path class="st6" d="M82.5,135c1.2,0,2.2,0.3,3.1,0.7v-20.4c0-0.9-0.8-1.7-1.7-1.7c-0.9,0-1.7,0.8-1.7,1.7V135
			C82.3,135,82.4,135,82.5,135z"/>
		<path class="st6" d="M105.1,135c1.2,0,2.2,0.3,3.1,0.7v-20.4c0-0.9-0.8-1.7-1.7-1.7c-0.9,0-1.7,0.8-1.7,1.7V135
			C104.9,135,105,135,105.1,135z"/>
		<path class="st6" d="M161,62c-0.8-7.8-7-14.1-14.8-15c-0.5-0.1-1-0.1-1.5-0.1l0,0c-0.2,0-0.3,0-0.5,0l-21.4,0l0,0
			c-0.5,0-1,0-1.5,0.1c-7.8,0.9-14,7.2-14.8,15c0,0.3,0,0.5-0.1,0.9l0,2.5c0.7-0.2,1.4-0.4,2.3-0.4c0.4,0,0.7,0,1.1,0.1l0-2.2
			c0-0.2,0-0.4,0-0.6c0.6-6.3,5.6-11.4,11.9-12.1c0.4,0,0.9-0.1,1.5-0.1l20.9,0l0.5,0c0.4,0,0.8,0,1.2,0.1
			c6.3,0.7,11.3,5.8,11.9,12.1c0.1,0.9,0.1,1.8,0,2.7l0,0.1l0,0.2c0,0.2-0.2,0.4-0.4,0.4h-10.4l0,1.6c0,0.3,0,0.7-0.1,1
			c-0.6,6.3-7.1,11.2-12.9,12.1l-0.8,0l-0.5,0.7c-2.3,3.5-5.9,5.7-10,6.1c-0.9,0.1-1.8,0.1-2.7,0l-0.1,0l-0.2,0
			c-0.2,0-0.4-0.2-0.4-0.4v-7l-1-0.4c-0.7-0.3-1.4-0.7-2.1-1.1c-0.5,1-1.3,1.9-2.4,2.4c0.7,0.5,1.4,0.9,2.1,1.3V87
			c0,2.1,1.7,3.7,3.7,3.7c0.1,0,0.1,0,0.2,0c0.5,0,1,0.1,1.5,0.1c0.6,0,1.1,0,1.7-0.1c4.8-0.5,9.1-3,12-6.9c0.1,0,0.2-0.1,0.2-0.1
			c6.6-1.5,13.8-7.2,14.8-14.5h7.2c2.1,0,3.7-1.7,3.7-3.7c0-0.1,0-0.1,0-0.2C161.1,64.1,161.1,63,161,62z"/>
		<path id="Shape_82_3_" class="st21" d="M139.9,63.4c0.6,0,1,0.5,1,1l0,0c0,0.6-0.5,1-1,1l0,0c-0.6,0-1-0.5-1-1l0,0
			C138.8,63.9,139.3,63.4,139.9,63.4"/>
		<path id="Shape_83_3_" class="st21" d="M130,63.4c0.6,0,1,0.5,1,1l0,0c0,0.6-0.5,1-1,1l0,0c-0.6,0-1-0.5-1-1l0,0
			C128.9,63.9,129.4,63.4,130,63.4"/>
		<path id="Shape_84_3_" class="st21" d="M120.1,63.4c0.6,0,1,0.5,1,1l0,0c0,0.6-0.5,1-1,1l0,0c-0.6,0-1-0.5-1-1l0,0
			C119,63.9,119.5,63.4,120.1,63.4"/>
		<path class="st6" d="M107.9,63.9c-0.5,0-1-0.1-1.5-0.1v4.8c0,0.9,0.7,1.7,1.7,1.7c0.9,0,1.7-0.7,1.7-1.7v-4.9
			C109.2,63.8,108.6,63.9,107.9,63.9z"/>
		<circle class="st6" cx="115" cy="79.7" r="1.7"/>
	</g>
	<g>
		<circle class="st2" cx="40.2" cy="147.4" r="20.9"/>
	</g>
	<text transform="matrix(0.9677 0 0 1 33.8317 155.6656)" class="st24 st26 st27">2</text>
	<g>
		<circle class="st2" cx="40.2" cy="147.4" r="20.9"/>
	</g>
	<g>
		<path class="st24" d="M35.2,156.3l3.5-4.7c0.5-0.7,1-1.4,1.5-2c0.4-0.6,0.8-1.1,1.1-1.5c0.3-0.5,0.5-0.9,0.7-1.3
			c0.2-0.4,0.2-0.8,0.2-1.2c0-0.7-0.2-1.2-0.7-1.6c-0.5-0.4-1.1-0.6-2-0.6c-0.4,0-0.7,0-0.9,0c-0.3,0-0.5,0.1-0.8,0.1
			c-0.2,0.1-0.5,0.1-0.7,0.2c-0.2,0.1-0.5,0.2-0.7,0.3c-0.2-0.5-0.4-0.9-0.5-1.4c-0.2-0.5-0.2-1-0.3-1.5c0.4-0.1,0.7-0.3,1.1-0.4
			c0.3-0.1,0.7-0.2,1-0.3s0.7-0.1,1-0.2c0.4,0,0.8-0.1,1.2-0.1c0.8,0,1.6,0.1,2.4,0.3c0.7,0.2,1.3,0.5,1.9,0.9
			c0.5,0.4,0.9,0.9,1.2,1.5c0.3,0.6,0.4,1.3,0.4,2.1c0,0.6-0.1,1.2-0.2,1.7c-0.2,0.5-0.4,1.1-0.7,1.6c-0.3,0.5-0.6,1.1-1,1.7
			c-0.4,0.6-0.8,1.2-1.3,1.8l-1.3,1.8h5.1c0.1,0.5,0.1,1,0.1,1.5c0,0.5,0,1.1-0.1,1.6h-11L35.2,156.3z"/>
	</g>
</g>
<g id="Layer_10">
</g>
<g id="Layer_11">
</g>
<g id="Iconos_de_servicios">
</g>
<g id="Ref" class="st29">
</g>
<g id="Layer_14">
</g>
<g id="elementos_ocultos" class="st29">
</g>
<g id="Layer_16">
</g>
<g id="Layer_18">
</g>
<g id="Contact">
</g>
</svg>
