<?xml version="1.0" encoding="utf-8"?>
<!-- Generator: Adobe Illustrator 23.0.0, SVG Export Plug-In . SVG Version: 6.00 Build 0)  -->
<svg version="1.1" xmlns="http://www.w3.org/2000/svg" xmlns:xlink="http://www.w3.org/1999/xlink" x="0px" y="0px"
	 viewBox="0 0 192 192" style="enable-background:new 0 0 192 192;" xml:space="preserve">
<style type="text/css">
	.st0{display:none;fill:#612960;}
	.st1{fill:#00FF00;}
	.st2{fill:#612960;}
	.st3{fill:none;stroke:#222221;stroke-width:1.5;stroke-miterlimit:10;}
	.st4{fill:#222221;}
	.st5{fill:#FFFFFF;}
	.st6{fill:#E97F24;}
	.st7{fill:#F48320;}
	.st8{clip-path:url(#SVGID_8_);fill:#612960;}
	.st9{fill:none;stroke:#000000;stroke-width:2;stroke-miterlimit:10;}
	.st10{fill:#F58520;}
	.st11{fill:none;stroke:#E87F24;stroke-width:4;stroke-linecap:round;stroke-linejoin:round;stroke-miterlimit:10;}
	.st12{fill:#612860;stroke:#E87F24;stroke-width:4;stroke-miterlimit:10;}
	.st13{fill:none;stroke:#FFFFFF;stroke-width:2;stroke-miterlimit:10;}
	.st14{fill:#E97F24;stroke:#FFFFFF;stroke-width:2;stroke-miterlimit:10;}
	.st15{fill:#F6F6F6;}
	.st16{fill:#E97F24;stroke:#E97F24;stroke-width:0.75;stroke-miterlimit:10;}
	.st17{fill:none;stroke:#E97F24;stroke-width:3.5;stroke-miterlimit:10;}
	.st18{fill:none;stroke:#E87F26;stroke-width:4;stroke-linecap:round;stroke-miterlimit:10;}
	.st19{fill:#E87F26;}
	.st20{fill:#E97F24;stroke:#E87F26;stroke-width:0.5;stroke-miterlimit:10;}
	.st21{fill:none;stroke:#E87F24;stroke-width:2.7;stroke-linecap:round;stroke-linejoin:round;}
	.st22{fill:none;stroke:#E87F26;stroke-width:2;stroke-linecap:round;stroke-linejoin:round;stroke-miterlimit:10;}
	.st23{fill:none;stroke:#E87F24;stroke-width:2.87;stroke-linecap:round;stroke-linejoin:round;stroke-miterlimit:10;}
	.st24{fill:#E87F24;}
	.st25{fill:none;stroke:#E87F26;stroke-width:2.5;stroke-linecap:round;stroke-linejoin:round;stroke-miterlimit:10;}
	.st26{fill:#00FFFF;}
	.st27{display:none;}
	.st28{display:inline;}
	.st29{display:inline;fill:#00FF00;}
	.st30{display:inline;fill:#E97F24;}
	.st31{fill:none;stroke:#E97F24;stroke-width:2;stroke-linecap:round;stroke-linejoin:round;stroke-miterlimit:10;}
</style>
<g id="Layer_1">
</g>
<g id="Menu">
</g>
<g id="Layer_3">
</g>
<g id="Layer_4">
</g>
<g id="Layer_5">
</g>
<g id="Layer_7">
</g>
<g id="Divisores">
</g>
<g id="Menu_1_">
</g>
<g id="Layer_17">
</g>
<g id="Layer_9">
	<g>
		<path class="st6" d="M154.3,105c-0.9,0-1.6-0.1-2.3-0.4v33.8H83.3V55H152v12c0.8-0.4,1.8-0.7,3-0.7c0.2,0,0.4,0,0.6,0V53.2
			c0-1-0.8-1.8-1.8-1.8H81.5c-1,0-1.8,0.8-1.8,1.8v87c0,1,0.8,1.8,1.8,1.8h72.2c1,0,1.8-0.8,1.8-1.8v-35.3
			C155.1,105,154.7,105,154.3,105z"/>
		<path class="st6" d="M139.1,75.2H97.5c-1,0-1.8-0.8-1.8-1.8c0-1,0.8-1.8,1.8-1.8h41.6c1,0,1.8,0.8,1.8,1.8
			C140.9,74.4,140.1,75.2,139.1,75.2z"/>
		<path class="st6" d="M134.5,84.7H97.5c-1,0-1.8-0.8-1.8-1.8c0-1,0.8-1.8,1.8-1.8h37.1c1,0,1.8,0.8,1.8,1.8
			C136.3,83.9,135.5,84.7,134.5,84.7z"/>
		<path class="st6" d="M122.9,94.3H97.5c-1,0-1.8-0.8-1.8-1.8c0-1,0.8-1.8,1.8-1.8h25.4c1,0,1.8,0.8,1.8,1.8
			C124.7,93.5,123.9,94.3,122.9,94.3z"/>
		<path class="st6" d="M116.6,103.8H97.5c-1,0-1.8-0.8-1.8-1.8s0.8-1.8,1.8-1.8h19.1c1,0,1.8,0.8,1.8,1.8S117.6,103.8,116.6,103.8z"
			/>
		<path class="st6" d="M106.7,113.4h-9.2c-1,0-1.8-0.8-1.8-1.8c0-1,0.8-1.8,1.8-1.8h9.2c1,0,1.8,0.8,1.8,1.8
			C108.5,112.6,107.7,113.4,106.7,113.4z"/>
		<g>
			<path class="st25" d="M134.8,111.1l-7.4-7.4l26.9-26.9c2-2,5.4-2,7.4,0c2,2,2,5.4,0,7.4L134.8,111.1z"/>
			<polygon class="st25" points="127.4,103.7 123.1,115.4 134.8,111.1 			"/>
		</g>
		<path class="st6" d="M153.4,66c-0.5,0-1,0-1.4-0.1v2c0,1,0.8,1.8,1.8,1.8c1,0,1.8-0.8,1.8-1.8v-2.1c0,0,0-0.1,0-0.1
			C154.9,65.9,154.2,66,153.4,66z"/>
		<path class="st6" d="M154.1,106.5c0.5,0,1,0,1.4,0.1v-2c0-1-0.8-1.8-1.8-1.8c-1,0-1.8,0.8-1.8,1.8v2.1c0,0,0,0.1,0,0.1
			C152.6,106.6,153.3,106.5,154.1,106.5z"/>
	</g>
	<g>
		<circle class="st2" cx="49.1" cy="147.3" r="20.9"/>
	</g>
	<g>
		<path class="st24" d="M43.2,153.2L50,139c0.5,0.1,1.1,0.2,1.6,0.4s1,0.4,1.4,0.8L48,150.5h3.4v-4c0.3,0,0.5-0.1,0.8-0.1
			c0.3,0,0.5,0,0.8,0c0.3,0,0.6,0,0.9,0c0.3,0,0.6,0.1,0.9,0.1v4h1.7c0.1,0.5,0.1,1,0.1,1.5c0,0.2,0,0.5,0,0.8s-0.1,0.5-0.1,0.7
			h-1.7v3.5c-0.3,0-0.5,0.1-0.8,0.1c-0.3,0-0.5,0-0.8,0c-0.3,0-0.6,0-0.9,0c-0.3,0-0.6-0.1-0.9-0.1v-3.5h-8.1L43.2,153.2z"/>
	</g>
</g>
<g id="Layer_10">
</g>
<g id="Layer_11">
</g>
<g id="Iconos_de_servicios">
</g>
<g id="Ref" class="st27">
</g>
<g id="Layer_14">
</g>
<g id="elementos_ocultos" class="st27">
</g>
<g id="Layer_16">
</g>
<g id="Layer_18">
</g>
<g id="Contact">
</g>
</svg>
